<?xml version="1.0" encoding="UTF-8" standalone="no"?>
<!DOCTYPE svg PUBLIC "-//W3C//DTD SVG 1.1//EN"
 "http://www.w3.org/Graphics/SVG/1.1/DTD/svg11.dtd">
<!-- Generated by graphviz version 10.0.1 (0)
 -->
<!-- Title: GrammarPortingLegend Pages: 1 -->
<svg width="192pt" height="209pt"
 viewBox="0.00 0.00 191.75 209.00" xmlns="http://www.w3.org/2000/svg" xmlns:xlink="http://www.w3.org/1999/xlink">
<g id="graph0" class="graph" transform="scale(1 1) rotate(0) translate(4 205)">
<title>GrammarPortingLegend</title>
<polygon fill="white" stroke="none" points="-4,4 -4,-205 187.75,-205 187.75,4 -4,4"/>
<g id="clust1" class="cluster">
<title>cluster_legend</title>
<polygon fill="none" stroke="gray" stroke-dasharray="5,2" points="8,-8 8,-193 175.75,-193 175.75,-8 8,-8"/>
<text text-anchor="middle" x="91.88" y="-175.7" font-family="Times,serif" font-size="14.00">Legend</text>
</g>
<!-- Incomplete -->
<g id="node1" class="node">
<title>Incomplete</title>
<polygon fill="none" stroke="red" points="145.88,-52 37.88,-52 37.88,-16 145.88,-16 145.88,-52"/>
<text text-anchor="middle" x="91.88" y="-29.32" font-family="Sans" font-size="14.00">Incomplete</text>
</g>
<!-- Tested -->
<g id="node2" class="node">
<title>Tested</title>
<polygon fill="orange" stroke="black" points="145.88,-106 37.88,-106 37.88,-70 145.88,-70 145.88,-106"/>
<text text-anchor="middle" x="91.88" y="-83.33" font-family="Sans" font-size="14.00">Tested</text>
</g>
<!-- SubGraphComplete -->
<g id="node3" class="node">
<title>SubGraphComplete</title>
<polygon fill="lightgreen" stroke="black" points="167.75,-160 16,-160 16,-124 167.75,-124 167.75,-160"/>
<text text-anchor="middle" x="91.88" y="-137.32" font-family="Sans" font-size="14.00">SubGraphComplete</text>
</g>
</g>
</svg>
