<?xml version="1.0" encoding="UTF-8" standalone="no"?>
<!DOCTYPE svg PUBLIC "-//W3C//DTD SVG 1.1//EN"
 "http://www.w3.org/Graphics/SVG/1.1/DTD/svg11.dtd">
<!-- Generated by graphviz version 10.0.1 (0)
 -->
<!-- Title: Roadmap Pages: 1 -->
<svg width="2359pt" height="908pt"
 viewBox="0.00 0.00 2359.13 908.00" xmlns="http://www.w3.org/2000/svg" xmlns:xlink="http://www.w3.org/1999/xlink">
<g id="graph0" class="graph" transform="scale(1 1) rotate(0) translate(4 904)">
<title>Roadmap</title>
<polygon fill="white" stroke="none" points="-4,4 -4,-904 2355.13,-904 2355.13,4 -4,4"/>
<!-- tsql_file -->
<g id="node1" class="node">
<title>tsql_file</title>
<g id="a_node1"><a xlink:href="https://github.com/Crary-Systems/tree-sitter-tsql/blob/main/grammar.js#L46" xlink:title="tsql_file">
<ellipse fill="none" stroke="red" cx="1071.9" cy="-882" rx="50.16" ry="18"/>
<text text-anchor="middle" x="1071.9" y="-877.33" font-family="Times,serif" font-size="14.00">tsql_file</text>
</a>
</g>
</g>
<!-- batch -->
<g id="node2" class="node">
<title>batch</title>
<g id="a_node2"><a xlink:href="https://github.com/Crary-Systems/tree-sitter-tsql/blob/main/grammar.js#L51" xlink:title="batch">
<ellipse fill="none" stroke="red" cx="1138.9" cy="-810" rx="39.11" ry="18"/>
<text text-anchor="middle" x="1138.9" y="-805.33" font-family="Times,serif" font-size="14.00">batch</text>
</a>
</g>
</g>
<!-- tsql_file&#45;&gt;batch -->
<g id="edge1" class="edge">
<title>tsql_file&#45;&gt;batch</title>
<path fill="none" stroke="black" d="M1087.44,-864.76C1095.93,-855.89 1106.61,-844.74 1116.03,-834.89"/>
<polygon fill="black" stroke="black" points="1118.47,-837.4 1122.86,-827.76 1113.42,-832.56 1118.47,-837.4"/>
</g>
<!-- execute_body_batch -->
<g id="node3" class="node">
<title>execute_body_batch</title>
<g id="a_node3"><a xlink:href="https://github.com/Crary-Systems/tree-sitter-tsql/blob/main/test/corpus/batch.txt#L74" xlink:title="execute_body_batch">
<ellipse fill="lightgreen" stroke="lightgreen" cx="896.9" cy="-738" rx="111.71" ry="18"/>
<text text-anchor="middle" x="896.9" y="-733.33" font-family="Times,serif" font-size="14.00">execute_body_batch</text>
</a>
</g>
</g>
<!-- tsql_file&#45;&gt;execute_body_batch -->
<g id="edge2" class="edge">
<title>tsql_file&#45;&gt;execute_body_batch</title>
<path fill="none" stroke="black" d="M1052.17,-864.99C1021.51,-840.11 962.26,-792.04 926.48,-763"/>
<polygon fill="black" stroke="black" points="929.07,-760.59 919.09,-757.01 924.65,-766.03 929.07,-760.59"/>
</g>
<!-- go_statement -->
<g id="node4" class="node">
<title>go_statement</title>
<g id="a_node4"><a xlink:href="https://github.com/Crary-Systems/tree-sitter-tsql/blob/main/test/corpus/go.txt" xlink:title="go_statement">
<ellipse fill="lightgreen" stroke="lightgreen" cx="1105.9" cy="-738" rx="79.09" ry="18"/>
<text text-anchor="middle" x="1105.9" y="-733.33" font-family="Times,serif" font-size="14.00">go_statement</text>
</a>
</g>
</g>
<!-- tsql_file&#45;&gt;go_statement -->
<g id="edge3" class="edge">
<title>tsql_file&#45;&gt;go_statement</title>
<path fill="none" stroke="black" d="M1075.21,-863.86C1078.77,-845.88 1084.74,-816.84 1090.9,-792 1092.91,-783.89 1095.29,-775.15 1097.56,-767.14"/>
<polygon fill="black" stroke="black" points="1100.92,-768.14 1100.33,-757.56 1094.19,-766.2 1100.92,-768.14"/>
</g>
<!-- batch&#45;&gt;execute_body_batch -->
<g id="edge5" class="edge">
<title>batch&#45;&gt;execute_body_batch</title>
<path fill="none" stroke="black" d="M1106.26,-799.56C1069.12,-788.81 1007.54,-771 960.76,-757.47"/>
<polygon fill="black" stroke="black" points="961.85,-754.14 951.27,-754.73 959.9,-760.87 961.85,-754.14"/>
</g>
<!-- batch&#45;&gt;go_statement -->
<g id="edge4" class="edge">
<title>batch&#45;&gt;go_statement</title>
<path fill="none" stroke="black" d="M1130.91,-792.05C1127.32,-784.43 1122.98,-775.23 1118.94,-766.65"/>
<polygon fill="black" stroke="black" points="1122.12,-765.2 1114.69,-757.64 1115.79,-768.18 1122.12,-765.2"/>
</g>
<!-- sql_clauses -->
<g id="node5" class="node">
<title>sql_clauses</title>
<g id="a_node5"><a xlink:href="https://github.com/Crary-Systems/tree-sitter-tsql/blob/4dda5f0b2a1d0c921fa68dff7fd5ffdb39467df3/grammar.js#L118-L122" xlink:title="sql_clauses">
<ellipse fill="none" stroke="red" cx="1270.9" cy="-738" rx="67.52" ry="18"/>
<text text-anchor="middle" x="1270.9" y="-733.33" font-family="Times,serif" font-size="14.00">sql_clauses</text>
</a>
</g>
</g>
<!-- batch&#45;&gt;sql_clauses -->
<g id="edge6" class="edge">
<title>batch&#45;&gt;sql_clauses</title>
<path fill="none" stroke="black" d="M1163.73,-795.83C1182.81,-785.71 1209.54,-771.54 1231.53,-759.88"/>
<polygon fill="black" stroke="black" points="1233.04,-763.04 1240.24,-755.26 1229.76,-756.85 1233.04,-763.04"/>
</g>
<!-- batch_level_statement -->
<g id="node6" class="node">
<title>batch_level_statement</title>
<g id="a_node6"><a xlink:href="https://github.com/Crary-Systems/tree-sitter-tsql/blob/main/grammar.js#L116" xlink:title="batch_level_statement">
<ellipse fill="none" stroke="red" cx="1782.9" cy="-738" rx="123.29" ry="18"/>
<text text-anchor="middle" x="1782.9" y="-733.33" font-family="Times,serif" font-size="14.00">batch_level_statement</text>
</a>
</g>
</g>
<!-- batch&#45;&gt;batch_level_statement -->
<g id="edge7" class="edge">
<title>batch&#45;&gt;batch_level_statement</title>
<path fill="none" stroke="black" d="M1176.78,-804.88C1272.76,-794.45 1528.27,-766.68 1675.08,-750.72"/>
<polygon fill="black" stroke="black" points="1675.27,-754.22 1684.83,-749.66 1674.51,-747.26 1675.27,-754.22"/>
</g>
<!-- func_proc_name_server_database_schema -->
<g id="node7" class="node">
<title>func_proc_name_server_database_schema</title>
<g id="a_node7"><a xlink:href="https://github.com/Crary-Systems/tree-sitter-tsql/blob/main/test/corpus/func_proc_name_server_database_schema.txt" xlink:title="func_proc_name_server_database_schema">
<ellipse fill="lightgreen" stroke="lightgreen" cx="904.9" cy="-666" rx="221.14" ry="18"/>
<text text-anchor="middle" x="904.9" y="-661.33" font-family="Times,serif" font-size="14.00">func_proc_name_server_database_schema</text>
</a>
</g>
</g>
<!-- execute_body_batch&#45;&gt;func_proc_name_server_database_schema -->
<g id="edge8" class="edge">
<title>execute_body_batch&#45;&gt;func_proc_name_server_database_schema</title>
<path fill="none" stroke="black" d="M898.88,-719.7C899.71,-712.41 900.7,-703.73 901.64,-695.54"/>
<polygon fill="black" stroke="black" points="905.12,-695.94 902.77,-685.61 898.16,-695.15 905.12,-695.94"/>
</g>
<!-- execute_statement_arg -->
<g id="node8" class="node">
<title>execute_statement_arg</title>
<g id="a_node8"><a xlink:href="https://github.com/Crary-Systems/tree-sitter-tsql/blob/main/test/corpus/execute_statement_arg.txt" xlink:title="execute_statement_arg">
<ellipse fill="lightgreen" stroke="lightgreen" cx="527.9" cy="-666" rx="127.49" ry="18"/>
<text text-anchor="middle" x="527.9" y="-661.33" font-family="Times,serif" font-size="14.00">execute_statement_arg</text>
</a>
</g>
</g>
<!-- execute_body_batch&#45;&gt;execute_statement_arg -->
<g id="edge9" class="edge">
<title>execute_body_batch&#45;&gt;execute_statement_arg</title>
<path fill="none" stroke="black" d="M826.63,-723.67C765.84,-712.14 677.79,-695.43 613.02,-683.15"/>
<polygon fill="black" stroke="black" points="613.99,-679.77 603.51,-681.34 612.69,-686.65 613.99,-679.77"/>
</g>
<!-- dml_clause -->
<g id="node13" class="node">
<title>dml_clause</title>
<g id="a_node13"><a xlink:href="https://github.com/Crary-Systems/tree-sitter-tsql/blob/4dda5f0b2a1d0c921fa68dff7fd5ffdb39467df3/grammar.js#L192-L195" xlink:title="dml_clause">
<ellipse fill="none" stroke="red" cx="1268.9" cy="-666" rx="66.47" ry="18"/>
<text text-anchor="middle" x="1268.9" y="-661.33" font-family="Times,serif" font-size="14.00">dml_clause</text>
</a>
</g>
</g>
<!-- sql_clauses&#45;&gt;dml_clause -->
<g id="edge14" class="edge">
<title>sql_clauses&#45;&gt;dml_clause</title>
<path fill="none" stroke="black" d="M1270.41,-719.7C1270.2,-712.41 1269.95,-703.73 1269.72,-695.54"/>
<polygon fill="black" stroke="black" points="1273.22,-695.51 1269.43,-685.62 1266.22,-695.71 1273.22,-695.51"/>
</g>
<!-- create_or_alter_function -->
<g id="node36" class="node">
<title>create_or_alter_function</title>
<ellipse fill="none" stroke="gray" cx="2218.9" cy="-666" rx="132.23" ry="18"/>
<text text-anchor="middle" x="2218.9" y="-661.33" font-family="Times,serif" font-size="14.00">create_or_alter_function</text>
</g>
<!-- batch_level_statement&#45;&gt;create_or_alter_function -->
<g id="edge42" class="edge">
<title>batch_level_statement&#45;&gt;create_or_alter_function</title>
<path fill="none" stroke="black" d="M1863.63,-724.04C1937.42,-712.19 2046.58,-694.67 2124.41,-682.17"/>
<polygon fill="black" stroke="black" points="2124.84,-685.65 2134.16,-680.61 2123.73,-678.73 2124.84,-685.65"/>
</g>
<!-- create_or_alter_procedure -->
<g id="node37" class="node">
<title>create_or_alter_procedure</title>
<ellipse fill="none" stroke="gray" cx="1495.9" cy="-666" rx="142.23" ry="18"/>
<text text-anchor="middle" x="1495.9" y="-661.33" font-family="Times,serif" font-size="14.00">create_or_alter_procedure</text>
</g>
<!-- batch_level_statement&#45;&gt;create_or_alter_procedure -->
<g id="edge43" class="edge">
<title>batch_level_statement&#45;&gt;create_or_alter_procedure</title>
<path fill="none" stroke="black" d="M1721.33,-721.98C1677.11,-711.2 1617.28,-696.61 1570.37,-685.16"/>
<polygon fill="black" stroke="black" points="1571.37,-681.8 1560.82,-682.83 1569.71,-688.6 1571.37,-681.8"/>
</g>
<!-- create_or_alter_trigger -->
<g id="node38" class="node">
<title>create_or_alter_trigger</title>
<ellipse fill="none" stroke="gray" cx="1782.9" cy="-666" rx="126.44" ry="18"/>
<text text-anchor="middle" x="1782.9" y="-661.33" font-family="Times,serif" font-size="14.00">create_or_alter_trigger</text>
</g>
<!-- batch_level_statement&#45;&gt;create_or_alter_trigger -->
<g id="edge44" class="edge">
<title>batch_level_statement&#45;&gt;create_or_alter_trigger</title>
<path fill="none" stroke="black" d="M1782.9,-719.7C1782.9,-712.41 1782.9,-703.73 1782.9,-695.54"/>
<polygon fill="black" stroke="black" points="1786.4,-695.62 1782.9,-685.62 1779.4,-695.62 1786.4,-695.62"/>
</g>
<!-- create_view -->
<g id="node39" class="node">
<title>create_view</title>
<ellipse fill="none" stroke="gray" cx="1997.9" cy="-666" rx="70.67" ry="18"/>
<text text-anchor="middle" x="1997.9" y="-661.33" font-family="Times,serif" font-size="14.00">create_view</text>
</g>
<!-- batch_level_statement&#45;&gt;create_view -->
<g id="edge45" class="edge">
<title>batch_level_statement&#45;&gt;create_view</title>
<path fill="none" stroke="black" d="M1831.96,-721.03C1865.62,-710.07 1910.26,-695.53 1944.77,-684.3"/>
<polygon fill="black" stroke="black" points="1945.72,-687.67 1954.15,-681.24 1943.56,-681.01 1945.72,-687.67"/>
</g>
<!-- func_proc_name_database_schema -->
<g id="node11" class="node">
<title>func_proc_name_database_schema</title>
<g id="a_node11"><a xlink:href="https://github.com/Crary-Systems/tree-sitter-tsql/blob/main/test/corpus/func_proc_name_server_database_schema.txt" xlink:title="func_proc_name_database_schema">
<ellipse fill="lightgreen" stroke="lightgreen" cx="908.9" cy="-594" rx="184.31" ry="18"/>
<text text-anchor="middle" x="908.9" y="-589.33" font-family="Times,serif" font-size="14.00">func_proc_name_database_schema</text>
</a>
</g>
</g>
<!-- func_proc_name_server_database_schema&#45;&gt;func_proc_name_database_schema -->
<g id="edge12" class="edge">
<title>func_proc_name_server_database_schema&#45;&gt;func_proc_name_database_schema</title>
<path fill="none" stroke="black" d="M905.89,-647.7C906.31,-640.41 906.8,-631.73 907.27,-623.54"/>
<polygon fill="black" stroke="black" points="910.76,-623.8 907.84,-613.62 903.77,-623.4 910.76,-623.8"/>
</g>
<!-- execute_statement_arg_named -->
<g id="node9" class="node">
<title>execute_statement_arg_named</title>
<g id="a_node9"><a xlink:href="https://github.com/Crary-Systems/tree-sitter-tsql/blob/main/test/corpus/execute_statement_arg.txt#L2" xlink:title="execute_statement_arg_named">
<ellipse fill="lightgreen" stroke="lightgreen" cx="165.9" cy="-594" rx="165.9" ry="18"/>
<text text-anchor="middle" x="165.9" y="-589.33" font-family="Times,serif" font-size="14.00">execute_statement_arg_named</text>
</a>
</g>
</g>
<!-- execute_statement_arg&#45;&gt;execute_statement_arg_named -->
<g id="edge10" class="edge">
<title>execute_statement_arg&#45;&gt;execute_statement_arg_named</title>
<path fill="none" stroke="black" d="M454.64,-650.83C397.27,-639.74 317.18,-624.25 255.91,-612.4"/>
<polygon fill="black" stroke="black" points="256.66,-608.99 246.18,-610.52 255.33,-615.86 256.66,-608.99"/>
</g>
<!-- execute_statement_arg_unnamed -->
<g id="node10" class="node">
<title>execute_statement_arg_unnamed</title>
<g id="a_node10"><a xlink:href="https://github.com/Crary-Systems/tree-sitter-tsql/blob/main/test/corpus/execute_statement_arg.txt#L42" xlink:title="execute_statement_arg_unnamed">
<ellipse fill="lightgreen" stroke="lightgreen" cx="527.9" cy="-594" rx="178.53" ry="18"/>
<text text-anchor="middle" x="527.9" y="-589.33" font-family="Times,serif" font-size="14.00">execute_statement_arg_unnamed</text>
</a>
</g>
</g>
<!-- execute_statement_arg&#45;&gt;execute_statement_arg_unnamed -->
<g id="edge11" class="edge">
<title>execute_statement_arg&#45;&gt;execute_statement_arg_unnamed</title>
<path fill="none" stroke="black" d="M527.9,-647.7C527.9,-640.41 527.9,-631.73 527.9,-623.54"/>
<polygon fill="black" stroke="black" points="531.4,-623.62 527.9,-613.62 524.4,-623.62 531.4,-623.62"/>
</g>
<!-- func_proc_name_schema -->
<g id="node12" class="node">
<title>func_proc_name_schema</title>
<g id="a_node12"><a xlink:href="https://github.com/Crary-Systems/tree-sitter-tsql/blob/main/test/corpus/func_proc_name_server_database_schema.txt" xlink:title="func_proc_name_schema">
<ellipse fill="lightgreen" stroke="lightgreen" cx="908.9" cy="-522" rx="134.33" ry="18"/>
<text text-anchor="middle" x="908.9" y="-517.33" font-family="Times,serif" font-size="14.00">func_proc_name_schema</text>
</a>
</g>
</g>
<!-- func_proc_name_database_schema&#45;&gt;func_proc_name_schema -->
<g id="edge13" class="edge">
<title>func_proc_name_database_schema&#45;&gt;func_proc_name_schema</title>
<path fill="none" stroke="black" d="M908.9,-575.7C908.9,-568.41 908.9,-559.73 908.9,-551.54"/>
<polygon fill="black" stroke="black" points="912.4,-551.62 908.9,-541.62 905.4,-551.62 912.4,-551.62"/>
</g>
<!-- select_statement_standalone -->
<g id="node14" class="node">
<title>select_statement_standalone</title>
<g id="a_node14"><a xlink:href="https://github.com/Crary-Systems/tree-sitter-tsql/blob/4dda5f0b2a1d0c921fa68dff7fd5ffdb39467df3/grammar.js#L197-L200" xlink:title="select_statement_standalone">
<ellipse fill="none" stroke="red" cx="1268.9" cy="-594" rx="155.9" ry="18"/>
<text text-anchor="middle" x="1268.9" y="-589.33" font-family="Times,serif" font-size="14.00">select_statement_standalone</text>
</a>
</g>
</g>
<!-- dml_clause&#45;&gt;select_statement_standalone -->
<g id="edge15" class="edge">
<title>dml_clause&#45;&gt;select_statement_standalone</title>
<path fill="none" stroke="black" d="M1268.9,-647.7C1268.9,-640.41 1268.9,-631.73 1268.9,-623.54"/>
<polygon fill="black" stroke="black" points="1272.4,-623.62 1268.9,-613.62 1265.4,-623.62 1272.4,-623.62"/>
</g>
<!-- select_statement -->
<g id="node15" class="node">
<title>select_statement</title>
<g id="a_node15"><a xlink:href="https://github.com/Crary-Systems/tree-sitter-tsql/blob/1f56e8217a05e0a7e09ce2955aee4c340190c598/grammar.js#L202-L206" xlink:title="select_statement">
<ellipse fill="none" stroke="red" cx="1418.9" cy="-522" rx="96.45" ry="18"/>
<text text-anchor="middle" x="1418.9" y="-517.33" font-family="Times,serif" font-size="14.00">select_statement</text>
</a>
</g>
</g>
<!-- select_statement_standalone&#45;&gt;select_statement -->
<g id="edge16" class="edge">
<title>select_statement_standalone&#45;&gt;select_statement</title>
<path fill="none" stroke="black" d="M1305.21,-576.05C1325.85,-566.42 1351.87,-554.28 1373.81,-544.04"/>
<polygon fill="black" stroke="black" points="1375.26,-547.23 1382.84,-539.83 1372.3,-540.88 1375.26,-547.23"/>
</g>
<!-- with_expression -->
<g id="node16" class="node">
<title>with_expression</title>
<ellipse fill="none" stroke="gray" cx="1211.9" cy="-522" rx="92.24" ry="18"/>
<text text-anchor="middle" x="1211.9" y="-517.33" font-family="Times,serif" font-size="14.00">with_expression</text>
</g>
<!-- select_statement_standalone&#45;&gt;with_expression -->
<g id="edge17" class="edge">
<title>select_statement_standalone&#45;&gt;with_expression</title>
<path fill="none" stroke="black" d="M1254.81,-575.7C1248.25,-567.64 1240.31,-557.89 1233.06,-548.98"/>
<polygon fill="black" stroke="black" points="1235.81,-546.82 1226.78,-541.28 1230.38,-551.24 1235.81,-546.82"/>
</g>
<!-- query_expression -->
<g id="node17" class="node">
<title>query_expression</title>
<g id="a_node17"><a xlink:href="https://github.com/Crary-Systems/tree-sitter-tsql/blob/main/grammar.js#L208-L211" xlink:title="query_expression">
<ellipse fill="none" stroke="red" cx="1329.9" cy="-450" rx="99.08" ry="18"/>
<text text-anchor="middle" x="1329.9" y="-445.32" font-family="Times,serif" font-size="14.00">query_expression</text>
</a>
</g>
</g>
<!-- select_statement&#45;&gt;query_expression -->
<g id="edge18" class="edge">
<title>select_statement&#45;&gt;query_expression</title>
<path fill="none" stroke="black" d="M1397.36,-504.05C1386.29,-495.35 1372.61,-484.59 1360.47,-475.04"/>
<polygon fill="black" stroke="black" points="1362.77,-472.4 1352.74,-468.97 1358.44,-477.9 1362.77,-472.4"/>
</g>
<!-- select_order_by_clause -->
<g id="node18" class="node">
<title>select_order_by_clause</title>
<ellipse fill="none" stroke="gray" cx="1078.9" cy="-378" rx="125.92" ry="18"/>
<text text-anchor="middle" x="1078.9" y="-373.32" font-family="Times,serif" font-size="14.00">select_order_by_clause</text>
</g>
<!-- select_statement&#45;&gt;select_order_by_clause -->
<g id="edge19" class="edge">
<title>select_statement&#45;&gt;select_order_by_clause</title>
<path fill="none" stroke="black" d="M1353.4,-508.45C1314.27,-499.72 1264.13,-486.34 1221.9,-468 1181.35,-450.39 1138.83,-422.54 1110.8,-402.69"/>
<polygon fill="black" stroke="black" points="1112.91,-399.9 1102.75,-396.91 1108.83,-405.58 1112.91,-399.9"/>
</g>
<!-- for_clause -->
<g id="node19" class="node">
<title>for_clause</title>
<ellipse fill="none" stroke="gray" cx="1508.9" cy="-450" rx="61.73" ry="18"/>
<text text-anchor="middle" x="1508.9" y="-445.32" font-family="Times,serif" font-size="14.00">for_clause</text>
</g>
<!-- select_statement&#45;&gt;for_clause -->
<g id="edge20" class="edge">
<title>select_statement&#45;&gt;for_clause</title>
<path fill="none" stroke="black" d="M1440.69,-504.05C1452.24,-495.07 1466.61,-483.9 1479.17,-474.12"/>
<polygon fill="black" stroke="black" points="1480.99,-477.14 1486.74,-468.24 1476.7,-471.61 1480.99,-477.14"/>
</g>
<!-- option_clause -->
<g id="node20" class="node">
<title>option_clause</title>
<ellipse fill="none" stroke="gray" cx="1667.9" cy="-450" rx="79.09" ry="18"/>
<text text-anchor="middle" x="1667.9" y="-445.32" font-family="Times,serif" font-size="14.00">option_clause</text>
</g>
<!-- select_statement&#45;&gt;option_clause -->
<g id="edge21" class="edge">
<title>select_statement&#45;&gt;option_clause</title>
<path fill="none" stroke="black" d="M1470.8,-506.41C1510.96,-495.12 1566.63,-479.47 1608.56,-467.68"/>
<polygon fill="black" stroke="black" points="1609.32,-471.11 1618,-465.03 1607.42,-464.37 1609.32,-471.11"/>
</g>
<!-- query_expression&#45;&gt;select_order_by_clause -->
<g id="edge23" class="edge">
<title>query_expression&#45;&gt;select_order_by_clause</title>
<path fill="none" stroke="black" d="M1277.28,-434.33C1238.96,-423.64 1186.77,-409.08 1145.54,-397.58"/>
<polygon fill="black" stroke="black" points="1146.52,-394.23 1135.95,-394.91 1144.64,-400.97 1146.52,-394.23"/>
</g>
<!-- query_specification -->
<g id="node21" class="node">
<title>query_specification</title>
<g id="a_node21"><a xlink:href="https://github.com/Crary-Systems/tree-sitter-tsql/blob/c1d4d4d9d830cdf8ec41142c705d269b1ea84c8e/grammar.js#L213-L218" xlink:title="query_specification">
<ellipse fill="none" stroke="red" cx="1329.9" cy="-378" rx="107.5" ry="18"/>
<text text-anchor="middle" x="1329.9" y="-373.32" font-family="Times,serif" font-size="14.00">query_specification</text>
</a>
</g>
</g>
<!-- query_expression&#45;&gt;query_specification -->
<g id="edge22" class="edge">
<title>query_expression&#45;&gt;query_specification</title>
<path fill="none" stroke="black" d="M1329.9,-431.7C1329.9,-424.41 1329.9,-415.73 1329.9,-407.54"/>
<polygon fill="black" stroke="black" points="1333.4,-407.62 1329.9,-397.62 1326.4,-407.62 1333.4,-407.62"/>
</g>
<!-- unions -->
<g id="node22" class="node">
<title>unions</title>
<ellipse fill="none" stroke="gray" cx="1499.9" cy="-378" rx="44.37" ry="18"/>
<text text-anchor="middle" x="1499.9" y="-373.32" font-family="Times,serif" font-size="14.00">unions</text>
</g>
<!-- query_expression&#45;&gt;unions -->
<g id="edge24" class="edge">
<title>query_expression&#45;&gt;unions</title>
<path fill="none" stroke="black" d="M1368.48,-433.12C1395.46,-422.01 1431.44,-407.19 1458.94,-395.87"/>
<polygon fill="black" stroke="black" points="1460.08,-399.18 1468,-392.14 1457.42,-392.71 1460.08,-399.18"/>
</g>
<!-- sql_union -->
<g id="node23" class="node">
<title>sql_union</title>
<ellipse fill="none" stroke="gray" cx="1620.9" cy="-378" rx="58.57" ry="18"/>
<text text-anchor="middle" x="1620.9" y="-373.32" font-family="Times,serif" font-size="14.00">sql_union</text>
</g>
<!-- query_expression&#45;&gt;sql_union -->
<g id="edge25" class="edge">
<title>query_expression&#45;&gt;sql_union</title>
<path fill="none" stroke="black" d="M1389.1,-435.13C1434.07,-424.54 1497.42,-409.53 1552.9,-396 1557.1,-394.98 1561.45,-393.91 1565.82,-392.83"/>
<polygon fill="black" stroke="black" points="1566.33,-396.31 1575.19,-390.5 1564.64,-389.51 1566.33,-396.31"/>
</g>
<!-- top_clause -->
<g id="node25" class="node">
<title>top_clause</title>
<ellipse fill="none" stroke="gray" cx="872.9" cy="-306" rx="63.83" ry="18"/>
<text text-anchor="middle" x="872.9" y="-301.32" font-family="Times,serif" font-size="14.00">top_clause</text>
</g>
<!-- query_specification&#45;&gt;top_clause -->
<g id="edge26" class="edge">
<title>query_specification&#45;&gt;top_clause</title>
<path fill="none" stroke="black" d="M1251.3,-365.35C1238.79,-363.53 1225.99,-361.7 1213.9,-360 1094.89,-343.29 1064.11,-345.65 945.9,-324 941.02,-323.11 935.97,-322.1 930.91,-321.04"/>
<polygon fill="black" stroke="black" points="931.88,-317.67 921.36,-318.96 930.39,-324.51 931.88,-317.67"/>
</g>
<!-- select_list -->
<g id="node26" class="node">
<title>select_list</title>
<g id="a_node26"><a xlink:href="https://github.com/Crary-Systems/tree-sitter-tsql/blob/main/test/corpus/select.txt" xlink:title="select_list">
<ellipse fill="orange" stroke="orange" cx="1015.9" cy="-306" rx="61.2" ry="18"/>
<text text-anchor="middle" x="1015.9" y="-301.32" font-family="Times,serif" font-size="14.00">select_list</text>
</a>
</g>
</g>
<!-- query_specification&#45;&gt;select_list -->
<g id="edge27" class="edge">
<title>query_specification&#45;&gt;select_list</title>
<path fill="none" stroke="black" d="M1264.82,-363.31C1215.61,-352.86 1146.42,-337.92 1085.9,-324 1081.63,-323.02 1077.23,-321.99 1072.8,-320.94"/>
<polygon fill="black" stroke="black" points="1073.81,-317.58 1063.27,-318.67 1072.19,-324.39 1073.81,-317.58"/>
</g>
<!-- table_name -->
<g id="node27" class="node">
<title>table_name</title>
<ellipse fill="none" stroke="red" cx="1163.9" cy="-306" rx="68.57" ry="18"/>
<text text-anchor="middle" x="1163.9" y="-301.32" font-family="Times,serif" font-size="14.00">table_name</text>
</g>
<!-- query_specification&#45;&gt;table_name -->
<g id="edge28" class="edge">
<title>query_specification&#45;&gt;table_name</title>
<path fill="none" stroke="black" d="M1291.4,-360.76C1267.01,-350.48 1235.35,-337.13 1209.68,-326.3"/>
<polygon fill="black" stroke="black" points="1211.05,-323.08 1200.47,-322.42 1208.33,-329.53 1211.05,-323.08"/>
</g>
<!-- table_sources -->
<g id="node28" class="node">
<title>table_sources</title>
<ellipse fill="none" stroke="red" cx="1329.9" cy="-306" rx="79.62" ry="18"/>
<text text-anchor="middle" x="1329.9" y="-301.32" font-family="Times,serif" font-size="14.00">table_sources</text>
</g>
<!-- query_specification&#45;&gt;table_sources -->
<g id="edge29" class="edge">
<title>query_specification&#45;&gt;table_sources</title>
<path fill="none" stroke="black" d="M1329.9,-359.7C1329.9,-352.41 1329.9,-343.73 1329.9,-335.54"/>
<polygon fill="black" stroke="black" points="1333.4,-335.62 1329.9,-325.62 1326.4,-335.62 1333.4,-335.62"/>
</g>
<!-- search_condition -->
<g id="node29" class="node">
<title>search_condition</title>
<ellipse fill="none" stroke="red" cx="1522.9" cy="-306" rx="95.4" ry="18"/>
<text text-anchor="middle" x="1522.9" y="-301.32" font-family="Times,serif" font-size="14.00">search_condition</text>
</g>
<!-- query_specification&#45;&gt;search_condition -->
<g id="edge30" class="edge">
<title>query_specification&#45;&gt;search_condition</title>
<path fill="none" stroke="black" d="M1373.69,-361.12C1402.12,-350.81 1439.35,-337.3 1469.51,-326.36"/>
<polygon fill="black" stroke="black" points="1470.64,-329.68 1478.85,-322.98 1468.26,-323.1 1470.64,-329.68"/>
</g>
<!-- group_by_item -->
<g id="node30" class="node">
<title>group_by_item</title>
<ellipse fill="none" stroke="red" cx="1720.9" cy="-306" rx="84.88" ry="18"/>
<text text-anchor="middle" x="1720.9" y="-301.32" font-family="Times,serif" font-size="14.00">group_by_item</text>
</g>
<!-- query_specification&#45;&gt;group_by_item -->
<g id="edge31" class="edge">
<title>query_specification&#45;&gt;group_by_item</title>
<path fill="none" stroke="black" d="M1401.62,-364.25C1461.78,-353.54 1549.96,-337.82 1626.9,-324 1633.33,-322.84 1640.01,-321.64 1646.71,-320.43"/>
<polygon fill="black" stroke="black" points="1647.24,-323.89 1656.46,-318.67 1646,-317.01 1647.24,-323.89"/>
</g>
<!-- grouping_sets_item -->
<g id="node31" class="node">
<title>grouping_sets_item</title>
<ellipse fill="none" stroke="red" cx="1932.9" cy="-306" rx="109.08" ry="18"/>
<text text-anchor="middle" x="1932.9" y="-301.32" font-family="Times,serif" font-size="14.00">grouping_sets_item</text>
</g>
<!-- query_specification&#45;&gt;grouping_sets_item -->
<g id="edge32" class="edge">
<title>query_specification&#45;&gt;grouping_sets_item</title>
<path fill="none" stroke="black" d="M1407.56,-365.2C1420.67,-363.35 1434.17,-361.55 1446.9,-360 1610.04,-340.18 1651.75,-343.72 1814.9,-324 1824.06,-322.89 1833.6,-321.66 1843.12,-320.37"/>
<polygon fill="black" stroke="black" points="1843.33,-323.87 1852.76,-319.04 1842.38,-316.94 1843.33,-323.87"/>
</g>
<!-- assignment_operator -->
<g id="node24" class="node">
<title>assignment_operator</title>
<g id="a_node24"><a xlink:href="https://github.com/Crary-Systems/tree-sitter-tsql/blob/main/test/corpus/assignment_operator.txt" xlink:title="assignment_operator">
<ellipse fill="lightgreen" stroke="lightgreen" cx="753.9" cy="-162" rx="116.97" ry="18"/>
<text text-anchor="middle" x="753.9" y="-157.32" font-family="Times,serif" font-size="14.00">assignment_operator</text>
</a>
</g>
</g>
<!-- select_list_elem -->
<g id="node32" class="node">
<title>select_list_elem</title>
<g id="a_node32"><a xlink:href="https://github.com/Crary-Systems/tree-sitter-tsql/blob/c1d4d4d9d830cdf8ec41142c705d269b1ea84c8e/grammar.js#L225-L232" xlink:title="select_list_elem">
<ellipse fill="none" stroke="red" cx="1015.9" cy="-234" rx="90.14" ry="18"/>
<text text-anchor="middle" x="1015.9" y="-229.32" font-family="Times,serif" font-size="14.00">select_list_elem</text>
</a>
</g>
</g>
<!-- select_list&#45;&gt;select_list_elem -->
<g id="edge33" class="edge">
<title>select_list&#45;&gt;select_list_elem</title>
<path fill="none" stroke="black" d="M1015.9,-287.7C1015.9,-280.41 1015.9,-271.73 1015.9,-263.54"/>
<polygon fill="black" stroke="black" points="1019.4,-263.62 1015.9,-253.62 1012.4,-263.62 1019.4,-263.62"/>
</g>
<!-- select_list_elem&#45;&gt;assignment_operator -->
<g id="edge35" class="edge">
<title>select_list_elem&#45;&gt;assignment_operator</title>
<path fill="none" stroke="black" d="M963.51,-219C922.76,-208.12 865.91,-192.93 821.69,-181.11"/>
<polygon fill="black" stroke="black" points="822.77,-177.78 812.2,-178.58 820.96,-184.54 822.77,-177.78"/>
</g>
<!-- udt_elem -->
<g id="node33" class="node">
<title>udt_elem</title>
<g id="a_node33"><a xlink:href="https://github.com/Crary-Systems/tree-sitter-tsql/blob/main/test/corpus/udt_elem.txt" xlink:title="udt_elem">
<ellipse fill="lightgreen" stroke="lightgreen" cx="945.9" cy="-162" rx="57" ry="18"/>
<text text-anchor="middle" x="945.9" y="-157.32" font-family="Times,serif" font-size="14.00">udt_elem</text>
</a>
</g>
</g>
<!-- select_list_elem&#45;&gt;udt_elem -->
<g id="edge34" class="edge">
<title>select_list_elem&#45;&gt;udt_elem</title>
<path fill="none" stroke="black" d="M998.95,-216.05C990.32,-207.42 979.66,-196.76 970.17,-187.27"/>
<polygon fill="black" stroke="black" points="972.82,-184.97 963.28,-180.38 967.87,-189.92 972.82,-184.97"/>
</g>
<!-- expression -->
<g id="node34" class="node">
<title>expression</title>
<ellipse fill="none" stroke="red" cx="1085.9" cy="-162" rx="65.41" ry="18"/>
<text text-anchor="middle" x="1085.9" y="-157.32" font-family="Times,serif" font-size="14.00">expression</text>
</g>
<!-- select_list_elem&#45;&gt;expression -->
<g id="edge36" class="edge">
<title>select_list_elem&#45;&gt;expression</title>
<path fill="none" stroke="black" d="M1032.85,-216.05C1041.36,-207.54 1051.83,-197.07 1061.22,-187.68"/>
<polygon fill="black" stroke="black" points="1063.44,-190.41 1068.04,-180.86 1058.49,-185.46 1063.44,-190.41"/>
</g>
<!-- expression_elem -->
<g id="node35" class="node">
<title>expression_elem</title>
<ellipse fill="none" stroke="red" cx="1263.9" cy="-162" rx="94.35" ry="18"/>
<text text-anchor="middle" x="1263.9" y="-157.32" font-family="Times,serif" font-size="14.00">expression_elem</text>
</g>
<!-- select_list_elem&#45;&gt;expression_elem -->
<g id="edge37" class="edge">
<title>select_list_elem&#45;&gt;expression_elem</title>
<path fill="none" stroke="black" d="M1066.39,-218.75C1105.52,-207.7 1159.94,-192.34 1201.75,-180.54"/>
<polygon fill="black" stroke="black" points="1202.5,-183.97 1211.18,-177.88 1200.6,-177.23 1202.5,-183.97"/>
</g>
<!-- udt_method_arguments -->
<g id="node40" class="node">
<title>udt_method_arguments</title>
<g id="a_node40"><a xlink:href="https://github.com/Crary-Systems/tree-sitter-tsql/blob/main/test/corpus/udt_method_arguments.txt" xlink:title="udt_method_arguments">
<ellipse fill="lightgreen" stroke="lightgreen" cx="826.9" cy="-90" rx="129.6" ry="18"/>
<text text-anchor="middle" x="826.9" y="-85.33" font-family="Times,serif" font-size="14.00">udt_method_arguments</text>
</a>
</g>
</g>
<!-- udt_elem&#45;&gt;udt_method_arguments -->
<g id="edge38" class="edge">
<title>udt_elem&#45;&gt;udt_method_arguments</title>
<path fill="none" stroke="black" d="M919.78,-145.64C903.74,-136.2 882.9,-123.94 865.03,-113.43"/>
<polygon fill="black" stroke="black" points="867.15,-110.62 856.76,-108.56 863.6,-116.65 867.15,-110.62"/>
</g>
<!-- as_column_alias -->
<g id="node41" class="node">
<title>as_column_alias</title>
<g id="a_node41"><a xlink:href="https://github.com/Crary-Systems/tree-sitter-tsql/blob/main/test/corpus/as_column_alias.txt" xlink:title="as_column_alias">
<ellipse fill="lightgreen" stroke="lightgreen" cx="1065.9" cy="-90" rx="91.19" ry="18"/>
<text text-anchor="middle" x="1065.9" y="-85.33" font-family="Times,serif" font-size="14.00">as_column_alias</text>
</a>
</g>
</g>
<!-- udt_elem&#45;&gt;as_column_alias -->
<g id="edge39" class="edge">
<title>udt_elem&#45;&gt;as_column_alias</title>
<path fill="none" stroke="black" d="M972.23,-145.64C988.46,-136.17 1009.54,-123.88 1027.59,-113.35"/>
<polygon fill="black" stroke="black" points="1029.35,-116.37 1036.23,-108.31 1025.82,-110.33 1029.35,-116.37"/>
</g>
<!-- execute_var_string -->
<g id="node43" class="node">
<title>execute_var_string</title>
<g id="a_node43"><a xlink:href="https://github.com/Crary-Systems/tree-sitter-tsql/blob/main/test/corpus/execute_var_string.txt" xlink:title="execute_var_string">
<ellipse fill="lightgreen" stroke="lightgreen" cx="826.9" cy="-18" rx="105.92" ry="18"/>
<text text-anchor="middle" x="826.9" y="-13.32" font-family="Times,serif" font-size="14.00">execute_var_string</text>
</a>
</g>
</g>
<!-- udt_method_arguments&#45;&gt;execute_var_string -->
<g id="edge41" class="edge">
<title>udt_method_arguments&#45;&gt;execute_var_string</title>
<path fill="none" stroke="black" d="M826.9,-71.7C826.9,-64.41 826.9,-55.73 826.9,-47.54"/>
<polygon fill="black" stroke="black" points="830.4,-47.62 826.9,-37.62 823.4,-47.62 830.4,-47.62"/>
</g>
<!-- column_alias -->
<g id="node42" class="node">
<title>column_alias</title>
<g id="a_node42"><a xlink:href="https://github.com/Crary-Systems/tree-sitter-tsql/blob/main/test/corpus/column_alias.txt" xlink:title="column_alias">
<ellipse fill="lightgreen" stroke="lightgreen" cx="1065.9" cy="-18" rx="75.41" ry="18"/>
<text text-anchor="middle" x="1065.9" y="-13.32" font-family="Times,serif" font-size="14.00">column_alias</text>
</a>
</g>
</g>
<!-- as_column_alias&#45;&gt;column_alias -->
<g id="edge40" class="edge">
<title>as_column_alias&#45;&gt;column_alias</title>
<path fill="none" stroke="black" d="M1065.9,-71.7C1065.9,-64.41 1065.9,-55.73 1065.9,-47.54"/>
<polygon fill="black" stroke="black" points="1069.4,-47.62 1065.9,-37.62 1062.4,-47.62 1069.4,-47.62"/>
</g>
</g>
</svg>
