<?xml version="1.0" encoding="UTF-8" standalone="no"?>
<!DOCTYPE svg PUBLIC "-//W3C//DTD SVG 1.1//EN"
 "http://www.w3.org/Graphics/SVG/1.1/DTD/svg11.dtd">
<!-- Generated by graphviz version 10.0.1 (0)
 -->
<!-- Title: Roadmap Pages: 1 -->
<svg width="2359pt" height="476pt"
 viewBox="0.00 0.00 2359.13 476.00" xmlns="http://www.w3.org/2000/svg" xmlns:xlink="http://www.w3.org/1999/xlink">
<g id="graph0" class="graph" transform="scale(1 1) rotate(0) translate(4 472)">
<title>Roadmap</title>
<polygon fill="white" stroke="none" points="-4,4 -4,-472 2355.13,-472 2355.13,4 -4,4"/>
<!-- tsql_file -->
<g id="node1" class="node">
<title>tsql_file</title>
<g id="a_node1"><a xlink:href="https://github.com/Crary-Systems/tree-sitter-tsql/blob/main/grammar.js#L46" xlink:title="tsql_file">
<ellipse fill="none" stroke="red" cx="1071.9" cy="-450" rx="50.16" ry="18"/>
<text text-anchor="middle" x="1071.9" y="-445.32" font-family="Times,serif" font-size="14.00">tsql_file</text>
</a>
</g>
</g>
<!-- batch -->
<g id="node2" class="node">
<title>batch</title>
<g id="a_node2"><a xlink:href="https://github.com/Crary-Systems/tree-sitter-tsql/blob/main/grammar.js#L51" xlink:title="batch">
<ellipse fill="none" stroke="red" cx="1138.9" cy="-378" rx="39.11" ry="18"/>
<text text-anchor="middle" x="1138.9" y="-373.32" font-family="Times,serif" font-size="14.00">batch</text>
</a>
</g>
</g>
<!-- tsql_file&#45;&gt;batch -->
<g id="edge1" class="edge">
<title>tsql_file&#45;&gt;batch</title>
<path fill="none" stroke="black" d="M1087.44,-432.76C1095.93,-423.89 1106.61,-412.74 1116.03,-402.89"/>
<polygon fill="black" stroke="black" points="1118.47,-405.4 1122.86,-395.76 1113.42,-400.56 1118.47,-405.4"/>
</g>
<!-- execute_body_batch -->
<g id="node3" class="node">
<title>execute_body_batch</title>
<g id="a_node3"><a xlink:href="https://github.com/Crary-Systems/tree-sitter-tsql/blob/main/test/corpus/batch.txt#L74" xlink:title="execute_body_batch">
<ellipse fill="lightgreen" stroke="lightgreen" cx="896.9" cy="-306" rx="111.71" ry="18"/>
<text text-anchor="middle" x="896.9" y="-301.32" font-family="Times,serif" font-size="14.00">execute_body_batch</text>
</a>
</g>
</g>
<!-- tsql_file&#45;&gt;execute_body_batch -->
<g id="edge2" class="edge">
<title>tsql_file&#45;&gt;execute_body_batch</title>
<path fill="none" stroke="black" d="M1052.17,-432.99C1021.51,-408.11 962.26,-360.04 926.48,-331"/>
<polygon fill="black" stroke="black" points="929.07,-328.59 919.09,-325.01 924.65,-334.03 929.07,-328.59"/>
</g>
<!-- go_statement -->
<g id="node4" class="node">
<title>go_statement</title>
<g id="a_node4"><a xlink:href="https://github.com/Crary-Systems/tree-sitter-tsql/blob/main/test/corpus/go.txt" xlink:title="go_statement">
<ellipse fill="lightgreen" stroke="lightgreen" cx="1105.9" cy="-306" rx="79.09" ry="18"/>
<text text-anchor="middle" x="1105.9" y="-301.32" font-family="Times,serif" font-size="14.00">go_statement</text>
</a>
</g>
</g>
<!-- tsql_file&#45;&gt;go_statement -->
<g id="edge3" class="edge">
<title>tsql_file&#45;&gt;go_statement</title>
<path fill="none" stroke="black" d="M1075.21,-431.86C1078.77,-413.88 1084.74,-384.84 1090.9,-360 1092.91,-351.89 1095.29,-343.15 1097.56,-335.14"/>
<polygon fill="black" stroke="black" points="1100.92,-336.14 1100.33,-325.56 1094.19,-334.2 1100.92,-336.14"/>
</g>
<!-- batch&#45;&gt;execute_body_batch -->
<g id="edge5" class="edge">
<title>batch&#45;&gt;execute_body_batch</title>
<path fill="none" stroke="black" d="M1106.26,-367.56C1069.12,-356.81 1007.54,-339 960.76,-325.47"/>
<polygon fill="black" stroke="black" points="961.85,-322.14 951.27,-322.73 959.9,-328.87 961.85,-322.14"/>
</g>
<!-- batch&#45;&gt;go_statement -->
<g id="edge4" class="edge">
<title>batch&#45;&gt;go_statement</title>
<path fill="none" stroke="black" d="M1130.91,-360.05C1127.32,-352.43 1122.98,-343.23 1118.94,-334.65"/>
<polygon fill="black" stroke="black" points="1122.12,-333.2 1114.69,-325.64 1115.79,-336.18 1122.12,-333.2"/>
</g>
<!-- sql_clauses -->
<g id="node5" class="node">
<title>sql_clauses</title>
<g id="a_node5"><a xlink:href="https://github.com/Crary-Systems/tree-sitter-tsql/blob/4dda5f0b2a1d0c921fa68dff7fd5ffdb39467df3/grammar.js#L118-L122" xlink:title="sql_clauses">
<ellipse fill="none" stroke="red" cx="1270.9" cy="-306" rx="67.52" ry="18"/>
<text text-anchor="middle" x="1270.9" y="-301.32" font-family="Times,serif" font-size="14.00">sql_clauses</text>
</a>
</g>
</g>
<!-- batch&#45;&gt;sql_clauses -->
<g id="edge6" class="edge">
<title>batch&#45;&gt;sql_clauses</title>
<path fill="none" stroke="black" d="M1163.73,-363.83C1182.81,-353.71 1209.54,-339.54 1231.53,-327.88"/>
<polygon fill="black" stroke="black" points="1233.04,-331.04 1240.24,-323.26 1229.76,-324.85 1233.04,-331.04"/>
</g>
<!-- batch_level_statement -->
<g id="node6" class="node">
<title>batch_level_statement</title>
<g id="a_node6"><a xlink:href="https://github.com/Crary-Systems/tree-sitter-tsql/blob/main/grammar.js#L116" xlink:title="batch_level_statement">
<ellipse fill="none" stroke="red" cx="1782.9" cy="-306" rx="123.29" ry="18"/>
<text text-anchor="middle" x="1782.9" y="-301.32" font-family="Times,serif" font-size="14.00">batch_level_statement</text>
</a>
</g>
</g>
<!-- batch&#45;&gt;batch_level_statement -->
<g id="edge7" class="edge">
<title>batch&#45;&gt;batch_level_statement</title>
<path fill="none" stroke="black" d="M1176.78,-372.88C1272.76,-362.45 1528.27,-334.68 1675.08,-318.72"/>
<polygon fill="black" stroke="black" points="1675.27,-322.22 1684.83,-317.66 1674.51,-315.26 1675.27,-322.22"/>
</g>
<!-- func_proc_name_server_database_schema -->
<g id="node7" class="node">
<title>func_proc_name_server_database_schema</title>
<g id="a_node7"><a xlink:href="https://github.com/Crary-Systems/tree-sitter-tsql/blob/main/test/corpus/func_proc_name_server_database_schema.txt" xlink:title="func_proc_name_server_database_schema">
<ellipse fill="lightgreen" stroke="lightgreen" cx="904.9" cy="-234" rx="221.14" ry="18"/>
<text text-anchor="middle" x="904.9" y="-229.32" font-family="Times,serif" font-size="14.00">func_proc_name_server_database_schema</text>
</a>
</g>
</g>
<!-- execute_body_batch&#45;&gt;func_proc_name_server_database_schema -->
<g id="edge8" class="edge">
<title>execute_body_batch&#45;&gt;func_proc_name_server_database_schema</title>
<path fill="none" stroke="black" d="M898.88,-287.7C899.71,-280.41 900.7,-271.73 901.64,-263.54"/>
<polygon fill="black" stroke="black" points="905.12,-263.94 902.77,-253.61 898.16,-263.15 905.12,-263.94"/>
</g>
<!-- execute_statement_arg -->
<g id="node8" class="node">
<title>execute_statement_arg</title>
<g id="a_node8"><a xlink:href="https://github.com/Crary-Systems/tree-sitter-tsql/blob/main/test/corpus/execute_statement_arg.txt" xlink:title="execute_statement_arg">
<ellipse fill="lightgreen" stroke="lightgreen" cx="527.9" cy="-234" rx="127.49" ry="18"/>
<text text-anchor="middle" x="527.9" y="-229.32" font-family="Times,serif" font-size="14.00">execute_statement_arg</text>
</a>
</g>
</g>
<!-- execute_body_batch&#45;&gt;execute_statement_arg -->
<g id="edge9" class="edge">
<title>execute_body_batch&#45;&gt;execute_statement_arg</title>
<path fill="none" stroke="black" d="M826.63,-291.67C765.84,-280.14 677.79,-263.43 613.02,-251.15"/>
<polygon fill="black" stroke="black" points="613.99,-247.77 603.51,-249.34 612.69,-254.65 613.99,-247.77"/>
</g>
<!-- dml_clause -->
<g id="node13" class="node">
<title>dml_clause</title>
<g id="a_node13"><a xlink:href="https://github.com/Crary-Systems/tree-sitter-tsql/blob/4dda5f0b2a1d0c921fa68dff7fd5ffdb39467df3/grammar.js#L192-L195" xlink:title="dml_clause">
<ellipse fill="none" stroke="red" cx="1268.9" cy="-234" rx="66.47" ry="18"/>
<text text-anchor="middle" x="1268.9" y="-229.32" font-family="Times,serif" font-size="14.00">dml_clause</text>
</a>
</g>
</g>
<!-- sql_clauses&#45;&gt;dml_clause -->
<g id="edge14" class="edge">
<title>sql_clauses&#45;&gt;dml_clause</title>
<path fill="none" stroke="black" d="M1270.41,-287.7C1270.2,-280.41 1269.95,-271.73 1269.72,-263.54"/>
<polygon fill="black" stroke="black" points="1273.22,-263.51 1269.43,-253.62 1266.22,-263.71 1273.22,-263.51"/>
</g>
<!-- create_or_alter_function -->
<g id="node21" class="node">
<title>create_or_alter_function</title>
<ellipse fill="none" stroke="red" cx="2218.9" cy="-234" rx="132.23" ry="18"/>
<text text-anchor="middle" x="2218.9" y="-229.32" font-family="Times,serif" font-size="14.00">create_or_alter_function</text>
</g>
<!-- batch_level_statement&#45;&gt;create_or_alter_function -->
<g id="edge22" class="edge">
<title>batch_level_statement&#45;&gt;create_or_alter_function</title>
<path fill="none" stroke="black" d="M1863.63,-292.04C1937.42,-280.19 2046.58,-262.67 2124.41,-250.17"/>
<polygon fill="black" stroke="black" points="2124.84,-253.65 2134.16,-248.61 2123.73,-246.73 2124.84,-253.65"/>
</g>
<!-- create_or_alter_procedure -->
<g id="node22" class="node">
<title>create_or_alter_procedure</title>
<ellipse fill="none" stroke="red" cx="1495.9" cy="-234" rx="142.23" ry="18"/>
<text text-anchor="middle" x="1495.9" y="-229.32" font-family="Times,serif" font-size="14.00">create_or_alter_procedure</text>
</g>
<!-- batch_level_statement&#45;&gt;create_or_alter_procedure -->
<g id="edge23" class="edge">
<title>batch_level_statement&#45;&gt;create_or_alter_procedure</title>
<path fill="none" stroke="black" d="M1721.33,-289.98C1677.11,-279.2 1617.28,-264.61 1570.37,-253.16"/>
<polygon fill="black" stroke="black" points="1571.37,-249.8 1560.82,-250.83 1569.71,-256.6 1571.37,-249.8"/>
</g>
<!-- create_or_alter_trigger -->
<g id="node23" class="node">
<title>create_or_alter_trigger</title>
<ellipse fill="none" stroke="red" cx="1782.9" cy="-234" rx="126.44" ry="18"/>
<text text-anchor="middle" x="1782.9" y="-229.32" font-family="Times,serif" font-size="14.00">create_or_alter_trigger</text>
</g>
<!-- batch_level_statement&#45;&gt;create_or_alter_trigger -->
<g id="edge24" class="edge">
<title>batch_level_statement&#45;&gt;create_or_alter_trigger</title>
<path fill="none" stroke="black" d="M1782.9,-287.7C1782.9,-280.41 1782.9,-271.73 1782.9,-263.54"/>
<polygon fill="black" stroke="black" points="1786.4,-263.62 1782.9,-253.62 1779.4,-263.62 1786.4,-263.62"/>
</g>
<!-- create_view -->
<g id="node24" class="node">
<title>create_view</title>
<ellipse fill="none" stroke="red" cx="1997.9" cy="-234" rx="70.67" ry="18"/>
<text text-anchor="middle" x="1997.9" y="-229.32" font-family="Times,serif" font-size="14.00">create_view</text>
</g>
<!-- batch_level_statement&#45;&gt;create_view -->
<g id="edge25" class="edge">
<title>batch_level_statement&#45;&gt;create_view</title>
<path fill="none" stroke="black" d="M1831.96,-289.03C1865.62,-278.07 1910.26,-263.53 1944.77,-252.3"/>
<polygon fill="black" stroke="black" points="1945.72,-255.67 1954.15,-249.24 1943.56,-249.01 1945.72,-255.67"/>
</g>
<!-- func_proc_name_database_schema -->
<g id="node11" class="node">
<title>func_proc_name_database_schema</title>
<g id="a_node11"><a xlink:href="https://github.com/Crary-Systems/tree-sitter-tsql/blob/main/test/corpus/func_proc_name_server_database_schema.txt" xlink:title="func_proc_name_database_schema">
<ellipse fill="lightgreen" stroke="lightgreen" cx="908.9" cy="-162" rx="184.31" ry="18"/>
<text text-anchor="middle" x="908.9" y="-157.32" font-family="Times,serif" font-size="14.00">func_proc_name_database_schema</text>
</a>
</g>
</g>
<!-- func_proc_name_server_database_schema&#45;&gt;func_proc_name_database_schema -->
<g id="edge12" class="edge">
<title>func_proc_name_server_database_schema&#45;&gt;func_proc_name_database_schema</title>
<path fill="none" stroke="black" d="M905.89,-215.7C906.31,-208.41 906.8,-199.73 907.27,-191.54"/>
<polygon fill="black" stroke="black" points="910.76,-191.8 907.84,-181.62 903.77,-191.4 910.76,-191.8"/>
</g>
<!-- execute_statement_arg_named -->
<g id="node9" class="node">
<title>execute_statement_arg_named</title>
<g id="a_node9"><a xlink:href="https://github.com/Crary-Systems/tree-sitter-tsql/blob/main/test/corpus/execute_statement_arg.txt#L2" xlink:title="execute_statement_arg_named">
<ellipse fill="lightgreen" stroke="lightgreen" cx="165.9" cy="-162" rx="165.9" ry="18"/>
<text text-anchor="middle" x="165.9" y="-157.32" font-family="Times,serif" font-size="14.00">execute_statement_arg_named</text>
</a>
</g>
</g>
<!-- execute_statement_arg&#45;&gt;execute_statement_arg_named -->
<g id="edge10" class="edge">
<title>execute_statement_arg&#45;&gt;execute_statement_arg_named</title>
<path fill="none" stroke="black" d="M454.64,-218.83C397.27,-207.74 317.18,-192.25 255.91,-180.4"/>
<polygon fill="black" stroke="black" points="256.66,-176.99 246.18,-178.52 255.33,-183.86 256.66,-176.99"/>
</g>
<!-- execute_statement_arg_unnamed -->
<g id="node10" class="node">
<title>execute_statement_arg_unnamed</title>
<g id="a_node10"><a xlink:href="https://github.com/Crary-Systems/tree-sitter-tsql/blob/main/test/corpus/execute_statement_arg.txt#L42" xlink:title="execute_statement_arg_unnamed">
<ellipse fill="lightgreen" stroke="lightgreen" cx="527.9" cy="-162" rx="178.53" ry="18"/>
<text text-anchor="middle" x="527.9" y="-157.32" font-family="Times,serif" font-size="14.00">execute_statement_arg_unnamed</text>
</a>
</g>
</g>
<!-- execute_statement_arg&#45;&gt;execute_statement_arg_unnamed -->
<g id="edge11" class="edge">
<title>execute_statement_arg&#45;&gt;execute_statement_arg_unnamed</title>
<path fill="none" stroke="black" d="M527.9,-215.7C527.9,-208.41 527.9,-199.73 527.9,-191.54"/>
<polygon fill="black" stroke="black" points="531.4,-191.62 527.9,-181.62 524.4,-191.62 531.4,-191.62"/>
</g>
<!-- func_proc_name_schema -->
<g id="node12" class="node">
<title>func_proc_name_schema</title>
<g id="a_node12"><a xlink:href="https://github.com/Crary-Systems/tree-sitter-tsql/blob/main/test/corpus/func_proc_name_server_database_schema.txt" xlink:title="func_proc_name_schema">
<ellipse fill="lightgreen" stroke="lightgreen" cx="908.9" cy="-90" rx="134.33" ry="18"/>
<text text-anchor="middle" x="908.9" y="-85.33" font-family="Times,serif" font-size="14.00">func_proc_name_schema</text>
</a>
</g>
</g>
<!-- func_proc_name_database_schema&#45;&gt;func_proc_name_schema -->
<g id="edge13" class="edge">
<title>func_proc_name_database_schema&#45;&gt;func_proc_name_schema</title>
<path fill="none" stroke="black" d="M908.9,-143.7C908.9,-136.41 908.9,-127.73 908.9,-119.54"/>
<polygon fill="black" stroke="black" points="912.4,-119.62 908.9,-109.62 905.4,-119.62 912.4,-119.62"/>
</g>
<!-- select_statement_standalone -->
<g id="node14" class="node">
<title>select_statement_standalone</title>
<g id="a_node14"><a xlink:href="https://github.com/Crary-Systems/tree-sitter-tsql/blob/4dda5f0b2a1d0c921fa68dff7fd5ffdb39467df3/grammar.js#L197-L200" xlink:title="select_statement_standalone">
<ellipse fill="none" stroke="red" cx="1268.9" cy="-162" rx="155.9" ry="18"/>
<text text-anchor="middle" x="1268.9" y="-157.32" font-family="Times,serif" font-size="14.00">select_statement_standalone</text>
</a>
</g>
</g>
<!-- dml_clause&#45;&gt;select_statement_standalone -->
<g id="edge15" class="edge">
<title>dml_clause&#45;&gt;select_statement_standalone</title>
<path fill="none" stroke="black" d="M1268.9,-215.7C1268.9,-208.41 1268.9,-199.73 1268.9,-191.54"/>
<polygon fill="black" stroke="black" points="1272.4,-191.62 1268.9,-181.62 1265.4,-191.62 1272.4,-191.62"/>
</g>
<!-- select_statement -->
<g id="node15" class="node">
<title>select_statement</title>
<g id="a_node15"><a xlink:href="https://github.com/Crary-Systems/tree-sitter-tsql/blob/1f56e8217a05e0a7e09ce2955aee4c340190c598/grammar.js#L202-L206" xlink:title="select_statement">
<ellipse fill="none" stroke="red" cx="1418.9" cy="-90" rx="96.45" ry="18"/>
<text text-anchor="middle" x="1418.9" y="-85.33" font-family="Times,serif" font-size="14.00">select_statement</text>
</a>
</g>
</g>
<!-- select_statement_standalone&#45;&gt;select_statement -->
<g id="edge16" class="edge">
<title>select_statement_standalone&#45;&gt;select_statement</title>
<path fill="none" stroke="black" d="M1305.21,-144.05C1325.85,-134.42 1351.87,-122.28 1373.81,-112.04"/>
<polygon fill="black" stroke="black" points="1375.26,-115.23 1382.84,-107.83 1372.3,-108.88 1375.26,-115.23"/>
</g>
<!-- with_expression -->
<g id="node16" class="node">
<title>with_expression</title>
<ellipse fill="none" stroke="red" cx="1211.9" cy="-90" rx="92.24" ry="18"/>
<text text-anchor="middle" x="1211.9" y="-85.33" font-family="Times,serif" font-size="14.00">with_expression</text>
</g>
<!-- select_statement_standalone&#45;&gt;with_expression -->
<g id="edge17" class="edge">
<title>select_statement_standalone&#45;&gt;with_expression</title>
<path fill="none" stroke="black" d="M1254.81,-143.7C1248.25,-135.64 1240.31,-125.89 1233.06,-116.98"/>
<polygon fill="black" stroke="black" points="1235.81,-114.82 1226.78,-109.28 1230.38,-119.24 1235.81,-114.82"/>
</g>
<!-- query_expression -->
<g id="node17" class="node">
<title>query_expression</title>
<g id="a_node17"><a xlink:href="https://github.com/Crary-Systems/tree-sitter-tsql/blob/main/grammar.js#L208-L211" xlink:title="query_expression">
<ellipse fill="none" stroke="red" cx="1072.9" cy="-18" rx="99.08" ry="18"/>
<text text-anchor="middle" x="1072.9" y="-13.32" font-family="Times,serif" font-size="14.00">query_expression</text>
</a>
</g>
</g>
<!-- select_statement&#45;&gt;query_expression -->
<g id="edge18" class="edge">
<title>select_statement&#45;&gt;query_expression</title>
<path fill="none" stroke="black" d="M1355.44,-76.16C1297.13,-64.36 1210.61,-46.86 1148.69,-34.33"/>
<polygon fill="black" stroke="black" points="1149.4,-30.91 1138.91,-32.35 1148.02,-37.77 1149.4,-30.91"/>
</g>
<!-- select_order_by_clause -->
<g id="node18" class="node">
<title>select_order_by_clause</title>
<ellipse fill="none" stroke="red" cx="1315.9" cy="-18" rx="125.92" ry="18"/>
<text text-anchor="middle" x="1315.9" y="-13.32" font-family="Times,serif" font-size="14.00">select_order_by_clause</text>
</g>
<!-- select_statement&#45;&gt;select_order_by_clause -->
<g id="edge19" class="edge">
<title>select_statement&#45;&gt;select_order_by_clause</title>
<path fill="none" stroke="black" d="M1394.23,-72.23C1381.05,-63.27 1364.61,-52.11 1350.21,-42.31"/>
<polygon fill="black" stroke="black" points="1352.58,-39.69 1342.34,-36.97 1348.64,-45.48 1352.58,-39.69"/>
</g>
<!-- for_clause -->
<g id="node19" class="node">
<title>for_clause</title>
<ellipse fill="none" stroke="red" cx="1521.9" cy="-18" rx="61.73" ry="18"/>
<text text-anchor="middle" x="1521.9" y="-13.32" font-family="Times,serif" font-size="14.00">for_clause</text>
</g>
<!-- select_statement&#45;&gt;for_clause -->
<g id="edge20" class="edge">
<title>select_statement&#45;&gt;for_clause</title>
<path fill="none" stroke="black" d="M1443.57,-72.23C1457.24,-62.94 1474.41,-51.28 1489.19,-41.23"/>
<polygon fill="black" stroke="black" points="1490.94,-44.28 1497.24,-35.76 1487,-38.49 1490.94,-44.28"/>
</g>
<!-- option_clause -->
<g id="node20" class="node">
<title>option_clause</title>
<ellipse fill="none" stroke="red" cx="1680.9" cy="-18" rx="79.09" ry="18"/>
<text text-anchor="middle" x="1680.9" y="-13.32" font-family="Times,serif" font-size="14.00">option_clause</text>
</g>
<!-- select_statement&#45;&gt;option_clause -->
<g id="edge21" class="edge">
<title>select_statement&#45;&gt;option_clause</title>
<path fill="none" stroke="black" d="M1472.55,-74.67C1515.34,-63.23 1575.27,-47.22 1619.88,-35.3"/>
<polygon fill="black" stroke="black" points="1620.65,-38.72 1629.41,-32.76 1618.84,-31.96 1620.65,-38.72"/>
</g>
</g>
</svg>
