<?xml version="1.0" encoding="UTF-8" standalone="no"?>
<!DOCTYPE svg PUBLIC "-//W3C//DTD SVG 1.1//EN"
 "http://www.w3.org/Graphics/SVG/1.1/DTD/svg11.dtd">
<!-- Generated by graphviz version 10.0.1 (0)
 -->
<!-- Title: Roadmap Pages: 1 -->
<svg width="3270pt" height="908pt"
 viewBox="0.00 0.00 3269.71 908.00" xmlns="http://www.w3.org/2000/svg" xmlns:xlink="http://www.w3.org/1999/xlink">
<g id="graph0" class="graph" transform="scale(1 1) rotate(0) translate(4 904)">
<title>Roadmap</title>
<polygon fill="white" stroke="none" points="-4,4 -4,-904 3265.71,-904 3265.71,4 -4,4"/>
<!-- tsql_file -->
<g id="node1" class="node">
<title>tsql_file</title>
<g id="a_node1"><a xlink:href="https://github.com/Crary-Systems/tree-sitter-tsql/blob/main/grammar.js#L46" xlink:title="tsql_file">
<ellipse fill="none" stroke="red" cx="1520.19" cy="-882" rx="50.16" ry="18"/>
<text text-anchor="middle" x="1520.19" y="-877.33" font-family="Times,serif" font-size="14.00">tsql_file</text>
</a>
</g>
</g>
<!-- batch -->
<g id="node2" class="node">
<title>batch</title>
<g id="a_node2"><a xlink:href="https://github.com/Crary-Systems/tree-sitter-tsql/blob/main/grammar.js#L51" xlink:title="batch">
<ellipse fill="none" stroke="red" cx="1587.19" cy="-810" rx="39.11" ry="18"/>
<text text-anchor="middle" x="1587.19" y="-805.33" font-family="Times,serif" font-size="14.00">batch</text>
</a>
</g>
</g>
<!-- tsql_file&#45;&gt;batch -->
<g id="edge1" class="edge">
<title>tsql_file&#45;&gt;batch</title>
<path fill="none" stroke="black" d="M1535.73,-864.76C1544.22,-855.89 1554.9,-844.74 1564.32,-834.89"/>
<polygon fill="black" stroke="black" points="1566.77,-837.4 1571.15,-827.76 1561.71,-832.56 1566.77,-837.4"/>
</g>
<!-- execute_body_batch -->
<g id="node3" class="node">
<title>execute_body_batch</title>
<g id="a_node3"><a xlink:href="https://github.com/Crary-Systems/tree-sitter-tsql/blob/main/test/corpus/batch.txt#L74" xlink:title="execute_body_batch">
<ellipse fill="lightgreen" stroke="lightgreen" cx="1345.19" cy="-738" rx="111.71" ry="18"/>
<text text-anchor="middle" x="1345.19" y="-733.33" font-family="Times,serif" font-size="14.00">execute_body_batch</text>
</a>
</g>
</g>
<!-- tsql_file&#45;&gt;execute_body_batch -->
<g id="edge2" class="edge">
<title>tsql_file&#45;&gt;execute_body_batch</title>
<path fill="none" stroke="black" d="M1500.46,-864.99C1469.8,-840.11 1410.56,-792.04 1374.77,-763"/>
<polygon fill="black" stroke="black" points="1377.36,-760.59 1367.39,-757.01 1372.95,-766.03 1377.36,-760.59"/>
</g>
<!-- go_statement -->
<g id="node4" class="node">
<title>go_statement</title>
<g id="a_node4"><a xlink:href="https://github.com/Crary-Systems/tree-sitter-tsql/blob/main/test/corpus/go.txt" xlink:title="go_statement">
<ellipse fill="lightgreen" stroke="lightgreen" cx="1554.19" cy="-738" rx="79.09" ry="18"/>
<text text-anchor="middle" x="1554.19" y="-733.33" font-family="Times,serif" font-size="14.00">go_statement</text>
</a>
</g>
</g>
<!-- tsql_file&#45;&gt;go_statement -->
<g id="edge3" class="edge">
<title>tsql_file&#45;&gt;go_statement</title>
<path fill="none" stroke="black" d="M1523.5,-863.86C1527.06,-845.88 1533.03,-816.84 1539.19,-792 1541.2,-783.89 1543.59,-775.15 1545.86,-767.14"/>
<polygon fill="black" stroke="black" points="1549.21,-768.14 1548.62,-757.56 1542.49,-766.2 1549.21,-768.14"/>
</g>
<!-- batch&#45;&gt;execute_body_batch -->
<g id="edge5" class="edge">
<title>batch&#45;&gt;execute_body_batch</title>
<path fill="none" stroke="black" d="M1554.56,-799.56C1517.41,-788.81 1455.83,-771 1409.05,-757.47"/>
<polygon fill="black" stroke="black" points="1410.14,-754.14 1399.56,-754.73 1408.19,-760.87 1410.14,-754.14"/>
</g>
<!-- batch&#45;&gt;go_statement -->
<g id="edge4" class="edge">
<title>batch&#45;&gt;go_statement</title>
<path fill="none" stroke="black" d="M1579.2,-792.05C1575.61,-784.43 1571.27,-775.23 1567.23,-766.65"/>
<polygon fill="black" stroke="black" points="1570.41,-765.2 1562.98,-757.64 1564.08,-768.18 1570.41,-765.2"/>
</g>
<!-- sql_clauses -->
<g id="node5" class="node">
<title>sql_clauses</title>
<g id="a_node5"><a xlink:href="https://github.com/Crary-Systems/tree-sitter-tsql/blob/4dda5f0b2a1d0c921fa68dff7fd5ffdb39467df3/grammar.js#L118-L122" xlink:title="sql_clauses">
<ellipse fill="none" stroke="red" cx="1719.19" cy="-738" rx="67.52" ry="18"/>
<text text-anchor="middle" x="1719.19" y="-733.33" font-family="Times,serif" font-size="14.00">sql_clauses</text>
</a>
</g>
</g>
<!-- batch&#45;&gt;sql_clauses -->
<g id="edge6" class="edge">
<title>batch&#45;&gt;sql_clauses</title>
<path fill="none" stroke="black" d="M1612.02,-795.83C1631.1,-785.71 1657.83,-771.54 1679.82,-759.88"/>
<polygon fill="black" stroke="black" points="1681.33,-763.04 1688.53,-755.26 1678.06,-756.85 1681.33,-763.04"/>
</g>
<!-- batch_level_statement -->
<g id="node6" class="node">
<title>batch_level_statement</title>
<g id="a_node6"><a xlink:href="https://github.com/Crary-Systems/tree-sitter-tsql/blob/main/grammar.js#L116" xlink:title="batch_level_statement">
<ellipse fill="none" stroke="red" cx="2231.19" cy="-738" rx="123.29" ry="18"/>
<text text-anchor="middle" x="2231.19" y="-733.33" font-family="Times,serif" font-size="14.00">batch_level_statement</text>
</a>
</g>
</g>
<!-- batch&#45;&gt;batch_level_statement -->
<g id="edge7" class="edge">
<title>batch&#45;&gt;batch_level_statement</title>
<path fill="none" stroke="black" d="M1625.07,-804.88C1721.05,-794.45 1976.56,-766.68 2123.38,-750.72"/>
<polygon fill="black" stroke="black" points="2123.56,-754.22 2133.12,-749.66 2122.8,-747.26 2123.56,-754.22"/>
</g>
<!-- func_proc_name_server_database_schema -->
<g id="node7" class="node">
<title>func_proc_name_server_database_schema</title>
<g id="a_node7"><a xlink:href="https://github.com/Crary-Systems/tree-sitter-tsql/blob/main/test/corpus/func_proc_name_server_database_schema.txt" xlink:title="func_proc_name_server_database_schema">
<ellipse fill="lightgreen" stroke="lightgreen" cx="1353.19" cy="-666" rx="221.14" ry="18"/>
<text text-anchor="middle" x="1353.19" y="-661.33" font-family="Times,serif" font-size="14.00">func_proc_name_server_database_schema</text>
</a>
</g>
</g>
<!-- execute_body_batch&#45;&gt;func_proc_name_server_database_schema -->
<g id="edge8" class="edge">
<title>execute_body_batch&#45;&gt;func_proc_name_server_database_schema</title>
<path fill="none" stroke="black" d="M1347.17,-719.7C1348,-712.41 1349,-703.73 1349.93,-695.54"/>
<polygon fill="black" stroke="black" points="1353.41,-695.94 1351.07,-685.61 1346.45,-695.15 1353.41,-695.94"/>
</g>
<!-- execute_statement_arg -->
<g id="node8" class="node">
<title>execute_statement_arg</title>
<g id="a_node8"><a xlink:href="https://github.com/Crary-Systems/tree-sitter-tsql/blob/main/test/corpus/execute_statement_arg.txt" xlink:title="execute_statement_arg">
<ellipse fill="lightgreen" stroke="lightgreen" cx="976.19" cy="-666" rx="127.49" ry="18"/>
<text text-anchor="middle" x="976.19" y="-661.33" font-family="Times,serif" font-size="14.00">execute_statement_arg</text>
</a>
</g>
</g>
<!-- execute_body_batch&#45;&gt;execute_statement_arg -->
<g id="edge9" class="edge">
<title>execute_body_batch&#45;&gt;execute_statement_arg</title>
<path fill="none" stroke="black" d="M1274.92,-723.67C1214.13,-712.14 1126.08,-695.43 1061.31,-683.15"/>
<polygon fill="black" stroke="black" points="1062.28,-679.77 1051.81,-681.34 1060.98,-686.65 1062.28,-679.77"/>
</g>
<!-- dml_clause -->
<g id="node13" class="node">
<title>dml_clause</title>
<g id="a_node13"><a xlink:href="https://github.com/Crary-Systems/tree-sitter-tsql/blob/4dda5f0b2a1d0c921fa68dff7fd5ffdb39467df3/grammar.js#L192-L195" xlink:title="dml_clause">
<ellipse fill="none" stroke="red" cx="1717.19" cy="-666" rx="66.47" ry="18"/>
<text text-anchor="middle" x="1717.19" y="-661.33" font-family="Times,serif" font-size="14.00">dml_clause</text>
</a>
</g>
</g>
<!-- sql_clauses&#45;&gt;dml_clause -->
<g id="edge14" class="edge">
<title>sql_clauses&#45;&gt;dml_clause</title>
<path fill="none" stroke="black" d="M1718.7,-719.7C1718.49,-712.41 1718.24,-703.73 1718.01,-695.54"/>
<polygon fill="black" stroke="black" points="1721.51,-695.51 1717.72,-685.62 1714.51,-695.71 1721.51,-695.51"/>
</g>
<!-- create_or_alter_function -->
<g id="node36" class="node">
<title>create_or_alter_function</title>
<ellipse fill="none" stroke="gray" cx="2667.19" cy="-666" rx="132.23" ry="18"/>
<text text-anchor="middle" x="2667.19" y="-661.33" font-family="Times,serif" font-size="14.00">create_or_alter_function</text>
</g>
<!-- batch_level_statement&#45;&gt;create_or_alter_function -->
<g id="edge57" class="edge">
<title>batch_level_statement&#45;&gt;create_or_alter_function</title>
<path fill="none" stroke="black" d="M2311.92,-724.04C2385.71,-712.19 2494.87,-694.67 2572.7,-682.17"/>
<polygon fill="black" stroke="black" points="2573.13,-685.65 2582.45,-680.61 2572.02,-678.73 2573.13,-685.65"/>
</g>
<!-- create_or_alter_procedure -->
<g id="node37" class="node">
<title>create_or_alter_procedure</title>
<ellipse fill="none" stroke="gray" cx="1944.19" cy="-666" rx="142.23" ry="18"/>
<text text-anchor="middle" x="1944.19" y="-661.33" font-family="Times,serif" font-size="14.00">create_or_alter_procedure</text>
</g>
<!-- batch_level_statement&#45;&gt;create_or_alter_procedure -->
<g id="edge58" class="edge">
<title>batch_level_statement&#45;&gt;create_or_alter_procedure</title>
<path fill="none" stroke="black" d="M2169.62,-721.98C2125.4,-711.2 2065.57,-696.61 2018.66,-685.16"/>
<polygon fill="black" stroke="black" points="2019.66,-681.8 2009.12,-682.83 2018,-688.6 2019.66,-681.8"/>
</g>
<!-- create_or_alter_trigger -->
<g id="node38" class="node">
<title>create_or_alter_trigger</title>
<ellipse fill="none" stroke="gray" cx="2231.19" cy="-666" rx="126.44" ry="18"/>
<text text-anchor="middle" x="2231.19" y="-661.33" font-family="Times,serif" font-size="14.00">create_or_alter_trigger</text>
</g>
<!-- batch_level_statement&#45;&gt;create_or_alter_trigger -->
<g id="edge59" class="edge">
<title>batch_level_statement&#45;&gt;create_or_alter_trigger</title>
<path fill="none" stroke="black" d="M2231.19,-719.7C2231.19,-712.41 2231.19,-703.73 2231.19,-695.54"/>
<polygon fill="black" stroke="black" points="2234.69,-695.62 2231.19,-685.62 2227.69,-695.62 2234.69,-695.62"/>
</g>
<!-- create_view -->
<g id="node39" class="node">
<title>create_view</title>
<ellipse fill="none" stroke="gray" cx="2446.19" cy="-666" rx="70.67" ry="18"/>
<text text-anchor="middle" x="2446.19" y="-661.33" font-family="Times,serif" font-size="14.00">create_view</text>
</g>
<!-- batch_level_statement&#45;&gt;create_view -->
<g id="edge60" class="edge">
<title>batch_level_statement&#45;&gt;create_view</title>
<path fill="none" stroke="black" d="M2280.25,-721.03C2313.91,-710.07 2358.56,-695.53 2393.06,-684.3"/>
<polygon fill="black" stroke="black" points="2394.01,-687.67 2402.44,-681.24 2391.85,-681.01 2394.01,-687.67"/>
</g>
<!-- func_proc_name_database_schema -->
<g id="node11" class="node">
<title>func_proc_name_database_schema</title>
<g id="a_node11"><a xlink:href="https://github.com/Crary-Systems/tree-sitter-tsql/blob/main/test/corpus/func_proc_name_server_database_schema.txt" xlink:title="func_proc_name_database_schema">
<ellipse fill="lightgreen" stroke="lightgreen" cx="1357.19" cy="-594" rx="184.31" ry="18"/>
<text text-anchor="middle" x="1357.19" y="-589.33" font-family="Times,serif" font-size="14.00">func_proc_name_database_schema</text>
</a>
</g>
</g>
<!-- func_proc_name_server_database_schema&#45;&gt;func_proc_name_database_schema -->
<g id="edge12" class="edge">
<title>func_proc_name_server_database_schema&#45;&gt;func_proc_name_database_schema</title>
<path fill="none" stroke="black" d="M1354.18,-647.7C1354.6,-640.41 1355.09,-631.73 1355.56,-623.54"/>
<polygon fill="black" stroke="black" points="1359.05,-623.8 1356.13,-613.62 1352.06,-623.4 1359.05,-623.8"/>
</g>
<!-- execute_statement_arg_named -->
<g id="node9" class="node">
<title>execute_statement_arg_named</title>
<g id="a_node9"><a xlink:href="https://github.com/Crary-Systems/tree-sitter-tsql/blob/main/test/corpus/execute_statement_arg.txt#L2" xlink:title="execute_statement_arg_named">
<ellipse fill="lightgreen" stroke="lightgreen" cx="614.19" cy="-594" rx="165.9" ry="18"/>
<text text-anchor="middle" x="614.19" y="-589.33" font-family="Times,serif" font-size="14.00">execute_statement_arg_named</text>
</a>
</g>
</g>
<!-- execute_statement_arg&#45;&gt;execute_statement_arg_named -->
<g id="edge10" class="edge">
<title>execute_statement_arg&#45;&gt;execute_statement_arg_named</title>
<path fill="none" stroke="black" d="M902.94,-650.83C845.56,-639.74 765.48,-624.25 704.2,-612.4"/>
<polygon fill="black" stroke="black" points="704.95,-608.99 694.47,-610.52 703.62,-615.86 704.95,-608.99"/>
</g>
<!-- execute_statement_arg_unnamed -->
<g id="node10" class="node">
<title>execute_statement_arg_unnamed</title>
<g id="a_node10"><a xlink:href="https://github.com/Crary-Systems/tree-sitter-tsql/blob/main/test/corpus/execute_statement_arg.txt#L42" xlink:title="execute_statement_arg_unnamed">
<ellipse fill="lightgreen" stroke="lightgreen" cx="976.19" cy="-594" rx="178.53" ry="18"/>
<text text-anchor="middle" x="976.19" y="-589.33" font-family="Times,serif" font-size="14.00">execute_statement_arg_unnamed</text>
</a>
</g>
</g>
<!-- execute_statement_arg&#45;&gt;execute_statement_arg_unnamed -->
<g id="edge11" class="edge">
<title>execute_statement_arg&#45;&gt;execute_statement_arg_unnamed</title>
<path fill="none" stroke="black" d="M976.19,-647.7C976.19,-640.41 976.19,-631.73 976.19,-623.54"/>
<polygon fill="black" stroke="black" points="979.69,-623.62 976.19,-613.62 972.69,-623.62 979.69,-623.62"/>
</g>
<!-- func_proc_name_schema -->
<g id="node12" class="node">
<title>func_proc_name_schema</title>
<g id="a_node12"><a xlink:href="https://github.com/Crary-Systems/tree-sitter-tsql/blob/main/test/corpus/func_proc_name_server_database_schema.txt" xlink:title="func_proc_name_schema">
<ellipse fill="lightgreen" stroke="lightgreen" cx="1357.19" cy="-522" rx="134.33" ry="18"/>
<text text-anchor="middle" x="1357.19" y="-517.33" font-family="Times,serif" font-size="14.00">func_proc_name_schema</text>
</a>
</g>
</g>
<!-- func_proc_name_database_schema&#45;&gt;func_proc_name_schema -->
<g id="edge13" class="edge">
<title>func_proc_name_database_schema&#45;&gt;func_proc_name_schema</title>
<path fill="none" stroke="black" d="M1357.19,-575.7C1357.19,-568.41 1357.19,-559.73 1357.19,-551.54"/>
<polygon fill="black" stroke="black" points="1360.69,-551.62 1357.19,-541.62 1353.69,-551.62 1360.69,-551.62"/>
</g>
<!-- select_statement_standalone -->
<g id="node14" class="node">
<title>select_statement_standalone</title>
<g id="a_node14"><a xlink:href="https://github.com/Crary-Systems/tree-sitter-tsql/blob/4dda5f0b2a1d0c921fa68dff7fd5ffdb39467df3/grammar.js#L197-L200" xlink:title="select_statement_standalone">
<ellipse fill="none" stroke="red" cx="1717.19" cy="-594" rx="155.9" ry="18"/>
<text text-anchor="middle" x="1717.19" y="-589.33" font-family="Times,serif" font-size="14.00">select_statement_standalone</text>
</a>
</g>
</g>
<!-- dml_clause&#45;&gt;select_statement_standalone -->
<g id="edge15" class="edge">
<title>dml_clause&#45;&gt;select_statement_standalone</title>
<path fill="none" stroke="black" d="M1717.19,-647.7C1717.19,-640.41 1717.19,-631.73 1717.19,-623.54"/>
<polygon fill="black" stroke="black" points="1720.69,-623.62 1717.19,-613.62 1713.69,-623.62 1720.69,-623.62"/>
</g>
<!-- select_statement -->
<g id="node15" class="node">
<title>select_statement</title>
<g id="a_node15"><a xlink:href="https://github.com/Crary-Systems/tree-sitter-tsql/blob/1f56e8217a05e0a7e09ce2955aee4c340190c598/grammar.js#L202-L206" xlink:title="select_statement">
<ellipse fill="none" stroke="red" cx="1867.19" cy="-522" rx="96.45" ry="18"/>
<text text-anchor="middle" x="1867.19" y="-517.33" font-family="Times,serif" font-size="14.00">select_statement</text>
</a>
</g>
</g>
<!-- select_statement_standalone&#45;&gt;select_statement -->
<g id="edge16" class="edge">
<title>select_statement_standalone&#45;&gt;select_statement</title>
<path fill="none" stroke="black" d="M1753.5,-576.05C1774.14,-566.42 1800.17,-554.28 1822.11,-544.04"/>
<polygon fill="black" stroke="black" points="1823.55,-547.23 1831.13,-539.83 1820.59,-540.88 1823.55,-547.23"/>
</g>
<!-- with_expression -->
<g id="node16" class="node">
<title>with_expression</title>
<ellipse fill="none" stroke="gray" cx="1660.19" cy="-522" rx="92.24" ry="18"/>
<text text-anchor="middle" x="1660.19" y="-517.33" font-family="Times,serif" font-size="14.00">with_expression</text>
</g>
<!-- select_statement_standalone&#45;&gt;with_expression -->
<g id="edge17" class="edge">
<title>select_statement_standalone&#45;&gt;with_expression</title>
<path fill="none" stroke="black" d="M1703.1,-575.7C1696.55,-567.64 1688.61,-557.89 1681.35,-548.98"/>
<polygon fill="black" stroke="black" points="1684.1,-546.82 1675.08,-541.28 1678.68,-551.24 1684.1,-546.82"/>
</g>
<!-- query_expression -->
<g id="node17" class="node">
<title>query_expression</title>
<g id="a_node17"><a xlink:href="https://github.com/Crary-Systems/tree-sitter-tsql/blob/main/grammar.js#L208-L211" xlink:title="query_expression">
<ellipse fill="none" stroke="red" cx="1778.19" cy="-450" rx="99.08" ry="18"/>
<text text-anchor="middle" x="1778.19" y="-445.32" font-family="Times,serif" font-size="14.00">query_expression</text>
</a>
</g>
</g>
<!-- select_statement&#45;&gt;query_expression -->
<g id="edge18" class="edge">
<title>select_statement&#45;&gt;query_expression</title>
<path fill="none" stroke="black" d="M1845.65,-504.05C1834.58,-495.35 1820.9,-484.59 1808.76,-475.04"/>
<polygon fill="black" stroke="black" points="1811.06,-472.4 1801.04,-468.97 1806.73,-477.9 1811.06,-472.4"/>
</g>
<!-- select_order_by_clause -->
<g id="node18" class="node">
<title>select_order_by_clause</title>
<ellipse fill="none" stroke="gray" cx="1527.19" cy="-378" rx="125.92" ry="18"/>
<text text-anchor="middle" x="1527.19" y="-373.32" font-family="Times,serif" font-size="14.00">select_order_by_clause</text>
</g>
<!-- select_statement&#45;&gt;select_order_by_clause -->
<g id="edge19" class="edge">
<title>select_statement&#45;&gt;select_order_by_clause</title>
<path fill="none" stroke="black" d="M1801.69,-508.45C1762.56,-499.72 1712.42,-486.34 1670.19,-468 1629.65,-450.39 1587.12,-422.54 1559.09,-402.69"/>
<polygon fill="black" stroke="black" points="1561.2,-399.9 1551.04,-396.91 1557.12,-405.58 1561.2,-399.9"/>
</g>
<!-- for_clause -->
<g id="node19" class="node">
<title>for_clause</title>
<ellipse fill="none" stroke="gray" cx="1957.19" cy="-450" rx="61.73" ry="18"/>
<text text-anchor="middle" x="1957.19" y="-445.32" font-family="Times,serif" font-size="14.00">for_clause</text>
</g>
<!-- select_statement&#45;&gt;for_clause -->
<g id="edge20" class="edge">
<title>select_statement&#45;&gt;for_clause</title>
<path fill="none" stroke="black" d="M1888.98,-504.05C1900.53,-495.07 1914.9,-483.9 1927.46,-474.12"/>
<polygon fill="black" stroke="black" points="1929.29,-477.14 1935.03,-468.24 1924.99,-471.61 1929.29,-477.14"/>
</g>
<!-- option_clause -->
<g id="node20" class="node">
<title>option_clause</title>
<ellipse fill="none" stroke="gray" cx="2116.19" cy="-450" rx="79.09" ry="18"/>
<text text-anchor="middle" x="2116.19" y="-445.32" font-family="Times,serif" font-size="14.00">option_clause</text>
</g>
<!-- select_statement&#45;&gt;option_clause -->
<g id="edge21" class="edge">
<title>select_statement&#45;&gt;option_clause</title>
<path fill="none" stroke="black" d="M1919.09,-506.41C1959.25,-495.12 2014.92,-479.47 2056.85,-467.68"/>
<polygon fill="black" stroke="black" points="2057.61,-471.11 2066.29,-465.03 2055.71,-464.37 2057.61,-471.11"/>
</g>
<!-- query_expression&#45;&gt;select_order_by_clause -->
<g id="edge23" class="edge">
<title>query_expression&#45;&gt;select_order_by_clause</title>
<path fill="none" stroke="black" d="M1725.57,-434.33C1687.26,-423.64 1635.06,-409.08 1593.83,-397.58"/>
<polygon fill="black" stroke="black" points="1594.82,-394.23 1584.24,-394.91 1592.94,-400.97 1594.82,-394.23"/>
</g>
<!-- query_specification -->
<g id="node21" class="node">
<title>query_specification</title>
<g id="a_node21"><a xlink:href="https://github.com/Crary-Systems/tree-sitter-tsql/blob/c1d4d4d9d830cdf8ec41142c705d269b1ea84c8e/grammar.js#L213-L218" xlink:title="query_specification">
<ellipse fill="none" stroke="red" cx="1778.19" cy="-378" rx="107.5" ry="18"/>
<text text-anchor="middle" x="1778.19" y="-373.32" font-family="Times,serif" font-size="14.00">query_specification</text>
</a>
</g>
</g>
<!-- query_expression&#45;&gt;query_specification -->
<g id="edge22" class="edge">
<title>query_expression&#45;&gt;query_specification</title>
<path fill="none" stroke="black" d="M1778.19,-431.7C1778.19,-424.41 1778.19,-415.73 1778.19,-407.54"/>
<polygon fill="black" stroke="black" points="1781.69,-407.62 1778.19,-397.62 1774.69,-407.62 1781.69,-407.62"/>
</g>
<!-- unions -->
<g id="node22" class="node">
<title>unions</title>
<ellipse fill="none" stroke="gray" cx="1948.19" cy="-378" rx="44.37" ry="18"/>
<text text-anchor="middle" x="1948.19" y="-373.32" font-family="Times,serif" font-size="14.00">unions</text>
</g>
<!-- query_expression&#45;&gt;unions -->
<g id="edge24" class="edge">
<title>query_expression&#45;&gt;unions</title>
<path fill="none" stroke="black" d="M1816.77,-433.12C1843.75,-422.01 1879.74,-407.19 1907.23,-395.87"/>
<polygon fill="black" stroke="black" points="1908.38,-399.18 1916.29,-392.14 1905.71,-392.71 1908.38,-399.18"/>
</g>
<!-- sql_union -->
<g id="node23" class="node">
<title>sql_union</title>
<ellipse fill="none" stroke="gray" cx="2069.19" cy="-378" rx="58.57" ry="18"/>
<text text-anchor="middle" x="2069.19" y="-373.32" font-family="Times,serif" font-size="14.00">sql_union</text>
</g>
<!-- query_expression&#45;&gt;sql_union -->
<g id="edge25" class="edge">
<title>query_expression&#45;&gt;sql_union</title>
<path fill="none" stroke="black" d="M1837.4,-435.13C1882.36,-424.54 1945.71,-409.53 2001.19,-396 2005.39,-394.98 2009.74,-393.91 2014.11,-392.83"/>
<polygon fill="black" stroke="black" points="2014.62,-396.31 2023.48,-390.5 2012.93,-389.51 2014.62,-396.31"/>
</g>
<!-- top_clause -->
<g id="node25" class="node">
<title>top_clause</title>
<ellipse fill="none" stroke="gray" cx="1321.19" cy="-306" rx="63.83" ry="18"/>
<text text-anchor="middle" x="1321.19" y="-301.32" font-family="Times,serif" font-size="14.00">top_clause</text>
</g>
<!-- query_specification&#45;&gt;top_clause -->
<g id="edge26" class="edge">
<title>query_specification&#45;&gt;top_clause</title>
<path fill="none" stroke="black" d="M1699.59,-365.35C1687.08,-363.53 1674.29,-361.7 1662.19,-360 1543.18,-343.29 1512.41,-345.65 1394.19,-324 1389.31,-323.11 1384.26,-322.1 1379.2,-321.04"/>
<polygon fill="black" stroke="black" points="1380.17,-317.67 1369.66,-318.96 1378.68,-324.51 1380.17,-317.67"/>
</g>
<!-- select_list -->
<g id="node26" class="node">
<title>select_list</title>
<g id="a_node26"><a xlink:href="https://github.com/Crary-Systems/tree-sitter-tsql/blob/main/test/corpus/select.txt" xlink:title="select_list">
<ellipse fill="orange" stroke="orange" cx="1464.19" cy="-306" rx="61.2" ry="18"/>
<text text-anchor="middle" x="1464.19" y="-301.32" font-family="Times,serif" font-size="14.00">select_list</text>
</a>
</g>
</g>
<!-- query_specification&#45;&gt;select_list -->
<g id="edge27" class="edge">
<title>query_specification&#45;&gt;select_list</title>
<path fill="none" stroke="black" d="M1713.11,-363.31C1663.9,-352.86 1594.71,-337.92 1534.19,-324 1529.93,-323.02 1525.52,-321.99 1521.09,-320.94"/>
<polygon fill="black" stroke="black" points="1522.1,-317.58 1511.56,-318.67 1520.48,-324.39 1522.1,-317.58"/>
</g>
<!-- table_name -->
<g id="node27" class="node">
<title>table_name</title>
<ellipse fill="none" stroke="red" cx="1612.19" cy="-306" rx="68.57" ry="18"/>
<text text-anchor="middle" x="1612.19" y="-301.32" font-family="Times,serif" font-size="14.00">table_name</text>
</g>
<!-- query_specification&#45;&gt;table_name -->
<g id="edge28" class="edge">
<title>query_specification&#45;&gt;table_name</title>
<path fill="none" stroke="black" d="M1739.69,-360.76C1715.3,-350.48 1683.64,-337.13 1657.97,-326.3"/>
<polygon fill="black" stroke="black" points="1659.34,-323.08 1648.77,-322.42 1656.62,-329.53 1659.34,-323.08"/>
</g>
<!-- table_sources -->
<g id="node28" class="node">
<title>table_sources</title>
<ellipse fill="none" stroke="red" cx="1778.19" cy="-306" rx="79.62" ry="18"/>
<text text-anchor="middle" x="1778.19" y="-301.32" font-family="Times,serif" font-size="14.00">table_sources</text>
</g>
<!-- query_specification&#45;&gt;table_sources -->
<g id="edge29" class="edge">
<title>query_specification&#45;&gt;table_sources</title>
<path fill="none" stroke="black" d="M1778.19,-359.7C1778.19,-352.41 1778.19,-343.73 1778.19,-335.54"/>
<polygon fill="black" stroke="black" points="1781.69,-335.62 1778.19,-325.62 1774.69,-335.62 1781.69,-335.62"/>
</g>
<!-- search_condition -->
<g id="node29" class="node">
<title>search_condition</title>
<ellipse fill="none" stroke="red" cx="1971.19" cy="-306" rx="95.4" ry="18"/>
<text text-anchor="middle" x="1971.19" y="-301.32" font-family="Times,serif" font-size="14.00">search_condition</text>
</g>
<!-- query_specification&#45;&gt;search_condition -->
<g id="edge30" class="edge">
<title>query_specification&#45;&gt;search_condition</title>
<path fill="none" stroke="black" d="M1821.99,-361.12C1850.42,-350.81 1887.65,-337.3 1917.81,-326.36"/>
<polygon fill="black" stroke="black" points="1918.94,-329.68 1927.14,-322.98 1916.55,-323.1 1918.94,-329.68"/>
</g>
<!-- group_by_item -->
<g id="node30" class="node">
<title>group_by_item</title>
<ellipse fill="none" stroke="red" cx="2169.19" cy="-306" rx="84.88" ry="18"/>
<text text-anchor="middle" x="2169.19" y="-301.32" font-family="Times,serif" font-size="14.00">group_by_item</text>
</g>
<!-- query_specification&#45;&gt;group_by_item -->
<g id="edge31" class="edge">
<title>query_specification&#45;&gt;group_by_item</title>
<path fill="none" stroke="black" d="M1849.92,-364.25C1910.08,-353.54 1998.25,-337.82 2075.19,-324 2081.62,-322.84 2088.3,-321.64 2095,-320.43"/>
<polygon fill="black" stroke="black" points="2095.54,-323.89 2104.76,-318.67 2094.29,-317.01 2095.54,-323.89"/>
</g>
<!-- grouping_sets_item -->
<g id="node31" class="node">
<title>grouping_sets_item</title>
<ellipse fill="none" stroke="red" cx="2381.19" cy="-306" rx="109.08" ry="18"/>
<text text-anchor="middle" x="2381.19" y="-301.32" font-family="Times,serif" font-size="14.00">grouping_sets_item</text>
</g>
<!-- query_specification&#45;&gt;grouping_sets_item -->
<g id="edge32" class="edge">
<title>query_specification&#45;&gt;grouping_sets_item</title>
<path fill="none" stroke="black" d="M1855.85,-365.2C1868.97,-363.35 1882.46,-361.55 1895.19,-360 2058.33,-340.18 2100.04,-343.72 2263.19,-324 2272.35,-322.89 2281.89,-321.66 2291.41,-320.37"/>
<polygon fill="black" stroke="black" points="2291.62,-323.87 2301.05,-319.04 2290.67,-316.94 2291.62,-323.87"/>
</g>
<!-- assignment_operator -->
<g id="node24" class="node">
<title>assignment_operator</title>
<g id="a_node24"><a xlink:href="https://github.com/Crary-Systems/tree-sitter-tsql/blob/main/test/corpus/assignment_operator.txt" xlink:title="assignment_operator">
<ellipse fill="lightgreen" stroke="lightgreen" cx="516.19" cy="-162" rx="116.97" ry="18"/>
<text text-anchor="middle" x="516.19" y="-157.32" font-family="Times,serif" font-size="14.00">assignment_operator</text>
</a>
</g>
</g>
<!-- select_list_elem -->
<g id="node32" class="node">
<title>select_list_elem</title>
<g id="a_node32"><a xlink:href="https://github.com/Crary-Systems/tree-sitter-tsql/blob/c1d4d4d9d830cdf8ec41142c705d269b1ea84c8e/grammar.js#L225-L232" xlink:title="select_list_elem">
<ellipse fill="none" stroke="red" cx="1464.19" cy="-234" rx="90.14" ry="18"/>
<text text-anchor="middle" x="1464.19" y="-229.32" font-family="Times,serif" font-size="14.00">select_list_elem</text>
</a>
</g>
</g>
<!-- select_list&#45;&gt;select_list_elem -->
<g id="edge33" class="edge">
<title>select_list&#45;&gt;select_list_elem</title>
<path fill="none" stroke="black" d="M1464.19,-287.7C1464.19,-280.41 1464.19,-271.73 1464.19,-263.54"/>
<polygon fill="black" stroke="black" points="1467.69,-263.62 1464.19,-253.62 1460.69,-263.62 1467.69,-263.62"/>
</g>
<!-- select_list_elem&#45;&gt;assignment_operator -->
<g id="edge35" class="edge">
<title>select_list_elem&#45;&gt;assignment_operator</title>
<path fill="none" stroke="black" d="M1376.74,-229.37C1226.36,-222.67 909.18,-206.59 642.19,-180 631.84,-178.97 621.03,-177.74 610.28,-176.43"/>
<polygon fill="black" stroke="black" points="610.98,-172.99 600.62,-175.21 610.11,-179.93 610.98,-172.99"/>
</g>
<!-- udt_elem -->
<g id="node33" class="node">
<title>udt_elem</title>
<g id="a_node33"><a xlink:href="https://github.com/Crary-Systems/tree-sitter-tsql/blob/main/test/corpus/udt_elem.txt" xlink:title="udt_elem">
<ellipse fill="lightgreen" stroke="lightgreen" cx="708.19" cy="-162" rx="57" ry="18"/>
<text text-anchor="middle" x="708.19" y="-157.32" font-family="Times,serif" font-size="14.00">udt_elem</text>
</a>
</g>
</g>
<!-- select_list_elem&#45;&gt;udt_elem -->
<g id="edge34" class="edge">
<title>select_list_elem&#45;&gt;udt_elem</title>
<path fill="none" stroke="black" d="M1383.65,-225.54C1233.03,-211.6 911.53,-181.83 773.43,-169.04"/>
<polygon fill="black" stroke="black" points="774.01,-165.58 763.73,-168.14 773.37,-172.55 774.01,-165.58"/>
</g>
<!-- expression -->
<g id="node34" class="node">
<title>expression</title>
<g id="a_node34"><a xlink:href="https://github.com/Crary-Systems/tree-sitter-tsql/blob/c1d4d4d9d830cdf8ec41142c705d269b1ea84c8e/grammar.js#L320-L326" xlink:title="expression">
<ellipse fill="none" stroke="red" cx="1843.19" cy="-162" rx="65.41" ry="18"/>
<text text-anchor="middle" x="1843.19" y="-157.32" font-family="Times,serif" font-size="14.00">expression</text>
</a>
</g>
</g>
<!-- select_list_elem&#45;&gt;expression -->
<g id="edge36" class="edge">
<title>select_list_elem&#45;&gt;expression</title>
<path fill="none" stroke="black" d="M1528.48,-221.13C1598.2,-208.25 1708.85,-187.81 1778.66,-174.92"/>
<polygon fill="black" stroke="black" points="1779.24,-178.37 1788.44,-173.11 1777.97,-171.49 1779.24,-178.37"/>
</g>
<!-- expression_elem -->
<g id="node35" class="node">
<title>expression_elem</title>
<ellipse fill="none" stroke="red" cx="2021.19" cy="-162" rx="94.35" ry="18"/>
<text text-anchor="middle" x="2021.19" y="-157.32" font-family="Times,serif" font-size="14.00">expression_elem</text>
</g>
<!-- select_list_elem&#45;&gt;expression_elem -->
<g id="edge37" class="edge">
<title>select_list_elem&#45;&gt;expression_elem</title>
<path fill="none" stroke="black" d="M1542.89,-224.89C1633.36,-215.32 1786.24,-198.35 1917.19,-180 1924.95,-178.91 1933.02,-177.71 1941.09,-176.47"/>
<polygon fill="black" stroke="black" points="1941.62,-179.93 1950.96,-174.92 1940.53,-173.01 1941.62,-179.93"/>
</g>
<!-- udt_method_arguments -->
<g id="node40" class="node">
<title>udt_method_arguments</title>
<g id="a_node40"><a xlink:href="https://github.com/Crary-Systems/tree-sitter-tsql/blob/main/test/corpus/udt_method_arguments.txt" xlink:title="udt_method_arguments">
<ellipse fill="lightgreen" stroke="lightgreen" cx="330.19" cy="-90" rx="129.6" ry="18"/>
<text text-anchor="middle" x="330.19" y="-85.33" font-family="Times,serif" font-size="14.00">udt_method_arguments</text>
</a>
</g>
</g>
<!-- udt_elem&#45;&gt;udt_method_arguments -->
<g id="edge38" class="edge">
<title>udt_elem&#45;&gt;udt_method_arguments</title>
<path fill="none" stroke="black" d="M666.07,-149.59C658.16,-147.61 649.95,-145.65 642.19,-144 570.99,-128.81 489.91,-115.15 428.26,-105.5"/>
<polygon fill="black" stroke="black" points="428.89,-102.05 418.47,-103.98 427.81,-108.97 428.89,-102.05"/>
</g>
<!-- as_column_alias -->
<g id="node41" class="node">
<title>as_column_alias</title>
<g id="a_node41"><a xlink:href="https://github.com/Crary-Systems/tree-sitter-tsql/blob/main/test/corpus/as_column_alias.txt" xlink:title="as_column_alias">
<ellipse fill="lightgreen" stroke="lightgreen" cx="91.19" cy="-90" rx="91.19" ry="18"/>
<text text-anchor="middle" x="91.19" y="-85.33" font-family="Times,serif" font-size="14.00">as_column_alias</text>
</a>
</g>
</g>
<!-- udt_elem&#45;&gt;as_column_alias -->
<g id="edge39" class="edge">
<title>udt_elem&#45;&gt;as_column_alias</title>
<path fill="none" stroke="black" d="M666.88,-149.2C658.75,-147.2 650.24,-145.35 642.19,-144 443.87,-110.8 390.73,-132.87 191.19,-108 183.53,-107.04 175.56,-105.92 167.61,-104.71"/>
<polygon fill="black" stroke="black" points="168.34,-101.28 157.92,-103.18 167.26,-108.19 168.34,-101.28"/>
</g>
<!-- primitive_expression -->
<g id="node44" class="node">
<title>primitive_expression</title>
<ellipse fill="none" stroke="red" cx="2412.19" cy="-90" rx="115.92" ry="18"/>
<text text-anchor="middle" x="2412.19" y="-85.33" font-family="Times,serif" font-size="14.00">primitive_expression</text>
</g>
<!-- expression&#45;&gt;primitive_expression -->
<g id="edge42" class="edge">
<title>expression&#45;&gt;primitive_expression</title>
<path fill="none" stroke="black" d="M1890.63,-149.3C1899.74,-147.32 1909.23,-145.45 1918.19,-144 2080.86,-117.74 2123.53,-127.11 2287.19,-108 2296.91,-106.87 2307.05,-105.61 2317.16,-104.31"/>
<polygon fill="black" stroke="black" points="2317.57,-107.78 2327.04,-103.02 2316.67,-100.84 2317.57,-107.78"/>
</g>
<!-- function_call -->
<g id="node45" class="node">
<title>function_call</title>
<ellipse fill="none" stroke="red" cx="2620.19" cy="-90" rx="74.36" ry="18"/>
<text text-anchor="middle" x="2620.19" y="-85.33" font-family="Times,serif" font-size="14.00">function_call</text>
</g>
<!-- expression&#45;&gt;function_call -->
<g id="edge43" class="edge">
<title>expression&#45;&gt;function_call</title>
<path fill="none" stroke="black" d="M1890.18,-149.1C1899.42,-147.12 1909.07,-145.29 1918.19,-144 2191.05,-105.41 2263.94,-143.74 2537.19,-108 2543.3,-107.2 2549.63,-106.21 2555.95,-105.11"/>
<polygon fill="black" stroke="black" points="2556.56,-108.55 2565.76,-103.3 2555.29,-101.67 2556.56,-108.55"/>
</g>
<!-- value_call -->
<g id="node46" class="node">
<title>value_call</title>
<ellipse fill="none" stroke="red" cx="2773.19" cy="-90" rx="60.15" ry="18"/>
<text text-anchor="middle" x="2773.19" y="-85.33" font-family="Times,serif" font-size="14.00">value_call</text>
</g>
<!-- expression&#45;&gt;value_call -->
<g id="edge44" class="edge">
<title>expression&#45;&gt;value_call</title>
<path fill="none" stroke="black" d="M1889.77,-149.1C1899.13,-147.09 1908.93,-145.25 1918.19,-144 2264.3,-97.21 2357.45,-157.44 2703.19,-108 2708.41,-107.25 2713.81,-106.29 2719.19,-105.21"/>
<polygon fill="black" stroke="black" points="2719.62,-108.69 2728.65,-103.15 2718.14,-101.85 2719.62,-108.69"/>
</g>
<!-- query_call -->
<g id="node47" class="node">
<title>query_call</title>
<ellipse fill="none" stroke="red" cx="2913.19" cy="-90" rx="62.26" ry="18"/>
<text text-anchor="middle" x="2913.19" y="-85.33" font-family="Times,serif" font-size="14.00">query_call</text>
</g>
<!-- expression&#45;&gt;query_call -->
<g id="edge45" class="edge">
<title>expression&#45;&gt;query_call</title>
<path fill="none" stroke="black" d="M1889.76,-149.05C1899.12,-147.04 1908.93,-145.22 1918.19,-144 2325.65,-90.35 2435.06,-164.12 2842.19,-108 2847.2,-107.31 2852.37,-106.42 2857.54,-105.41"/>
<polygon fill="black" stroke="black" points="2858.21,-108.85 2867.27,-103.36 2856.77,-102 2858.21,-108.85"/>
</g>
<!-- exist_call -->
<g id="node48" class="node">
<title>exist_call</title>
<ellipse fill="none" stroke="red" cx="3051.19" cy="-90" rx="57.52" ry="18"/>
<text text-anchor="middle" x="3051.19" y="-85.33" font-family="Times,serif" font-size="14.00">exist_call</text>
</g>
<!-- expression&#45;&gt;exist_call -->
<g id="edge46" class="edge">
<title>expression&#45;&gt;exist_call</title>
<path fill="none" stroke="black" d="M1889.76,-149.01C1899.12,-147.01 1908.92,-145.2 1918.19,-144 2388.34,-83.33 2514.86,-174.68 2984.19,-108 2989.07,-107.31 2994.1,-106.4 2999.12,-105.36"/>
<polygon fill="black" stroke="black" points="2999.54,-108.86 3008.53,-103.26 2998.01,-102.03 2999.54,-108.86"/>
</g>
<!-- modify_call -->
<g id="node49" class="node">
<title>modify_call</title>
<ellipse fill="none" stroke="red" cx="3194.19" cy="-90" rx="67.52" ry="18"/>
<text text-anchor="middle" x="3194.19" y="-85.33" font-family="Times,serif" font-size="14.00">modify_call</text>
</g>
<!-- expression&#45;&gt;modify_call -->
<g id="edge47" class="edge">
<title>expression&#45;&gt;modify_call</title>
<path fill="none" stroke="black" d="M1889.75,-148.98C1899.11,-146.98 1908.92,-145.18 1918.19,-144 2447.51,-76.71 2588.78,-174.54 3118.19,-108 3123.83,-107.29 3129.67,-106.36 3135.49,-105.29"/>
<polygon fill="black" stroke="black" points="3135.98,-108.76 3145.11,-103.39 3134.62,-101.89 3135.98,-108.76"/>
</g>
<!-- hierarchyid_call -->
<g id="node50" class="node">
<title>hierarchyid_call</title>
<ellipse fill="none" stroke="red" cx="568.19" cy="-90" rx="90.67" ry="18"/>
<text text-anchor="middle" x="568.19" y="-85.33" font-family="Times,serif" font-size="14.00">hierarchyid_call</text>
</g>
<!-- expression&#45;&gt;hierarchyid_call -->
<g id="edge48" class="edge">
<title>expression&#45;&gt;hierarchyid_call</title>
<path fill="none" stroke="black" d="M1777.69,-160.87C1599.17,-159.92 1089.24,-153.11 668.19,-108 660.19,-107.14 651.85,-106.05 643.56,-104.83"/>
<polygon fill="black" stroke="black" points="644.22,-101.39 633.81,-103.33 643.16,-108.31 644.22,-101.39"/>
</g>
<!-- COLLATE -->
<g id="node51" class="node">
<title>COLLATE</title>
<ellipse fill="none" stroke="red" cx="736.19" cy="-90" rx="59.1" ry="18"/>
<text text-anchor="middle" x="736.19" y="-85.33" font-family="Times,serif" font-size="14.00">COLLATE</text>
</g>
<!-- expression&#45;&gt;COLLATE -->
<g id="edge49" class="edge">
<title>expression&#45;&gt;COLLATE</title>
<path fill="none" stroke="black" d="M1778.1,-159.33C1581.13,-154.03 993.44,-136.21 804.19,-108 799.32,-107.27 794.29,-106.35 789.27,-105.32"/>
<polygon fill="black" stroke="black" points="790.38,-101.98 779.85,-103.22 788.86,-108.81 790.38,-101.98"/>
</g>
<!-- case_expression -->
<g id="node52" class="node">
<title>case_expression</title>
<ellipse fill="none" stroke="red" cx="905.19" cy="-90" rx="92.24" ry="18"/>
<text text-anchor="middle" x="905.19" y="-85.33" font-family="Times,serif" font-size="14.00">case_expression</text>
</g>
<!-- expression&#45;&gt;case_expression -->
<g id="edge50" class="edge">
<title>expression&#45;&gt;case_expression</title>
<path fill="none" stroke="black" d="M1778.14,-159.17C1637.1,-154.71 1292.76,-141.1 1006.19,-108 998.3,-107.09 990.08,-105.98 981.9,-104.76"/>
<polygon fill="black" stroke="black" points="982.7,-101.35 972.29,-103.28 981.64,-108.26 982.7,-101.35"/>
</g>
<!-- full_column_name -->
<g id="node53" class="node">
<title>full_column_name</title>
<ellipse fill="none" stroke="red" cx="1116.19" cy="-90" rx="100.66" ry="18"/>
<text text-anchor="middle" x="1116.19" y="-85.33" font-family="Times,serif" font-size="14.00">full_column_name</text>
</g>
<!-- expression&#45;&gt;full_column_name -->
<g id="edge51" class="edge">
<title>expression&#45;&gt;full_column_name</title>
<path fill="none" stroke="black" d="M1779.98,-156.99C1668.1,-149.57 1427.94,-132.23 1226.19,-108 1217.63,-106.97 1208.7,-105.78 1199.81,-104.53"/>
<polygon fill="black" stroke="black" points="1200.48,-101.09 1190.08,-103.12 1199.47,-108.01 1200.48,-101.09"/>
</g>
<!-- bracket_expression -->
<g id="node54" class="node">
<title>bracket_expression</title>
<ellipse fill="none" stroke="red" cx="1343.19" cy="-90" rx="108.03" ry="18"/>
<text text-anchor="middle" x="1343.19" y="-85.33" font-family="Times,serif" font-size="14.00">bracket_expression</text>
</g>
<!-- expression&#45;&gt;bracket_expression -->
<g id="edge52" class="edge">
<title>expression&#45;&gt;bracket_expression</title>
<path fill="none" stroke="black" d="M1785.43,-153.13C1710.43,-142.89 1575.5,-124.36 1460.19,-108 1451.62,-106.78 1442.69,-105.51 1433.77,-104.22"/>
<polygon fill="black" stroke="black" points="1434.38,-100.77 1423.98,-102.81 1433.38,-107.7 1434.38,-100.77"/>
</g>
<!-- unary_operator_expression -->
<g id="node55" class="node">
<title>unary_operator_expression</title>
<ellipse fill="none" stroke="red" cx="1616.19" cy="-90" rx="146.96" ry="18"/>
<text text-anchor="middle" x="1616.19" y="-85.33" font-family="Times,serif" font-size="14.00">unary_operator_expression</text>
</g>
<!-- expression&#45;&gt;unary_operator_expression -->
<g id="edge53" class="edge">
<title>expression&#45;&gt;unary_operator_expression</title>
<path fill="none" stroke="black" d="M1800.76,-147.92C1766.63,-137.39 1718.15,-122.44 1679.44,-110.5"/>
<polygon fill="black" stroke="black" points="1680.83,-107.27 1670.24,-107.67 1678.77,-113.96 1680.83,-107.27"/>
</g>
<!-- time_zone -->
<g id="node56" class="node">
<title>time_zone</title>
<ellipse fill="none" stroke="red" cx="1843.19" cy="-90" rx="61.73" ry="18"/>
<text text-anchor="middle" x="1843.19" y="-85.33" font-family="Times,serif" font-size="14.00">time_zone</text>
</g>
<!-- expression&#45;&gt;time_zone -->
<g id="edge54" class="edge">
<title>expression&#45;&gt;time_zone</title>
<path fill="none" stroke="black" d="M1843.19,-143.7C1843.19,-136.41 1843.19,-127.73 1843.19,-119.54"/>
<polygon fill="black" stroke="black" points="1846.69,-119.62 1843.19,-109.62 1839.69,-119.62 1846.69,-119.62"/>
</g>
<!-- over_clause -->
<g id="node57" class="node">
<title>over_clause</title>
<ellipse fill="none" stroke="red" cx="1992.19" cy="-90" rx="69.62" ry="18"/>
<text text-anchor="middle" x="1992.19" y="-85.33" font-family="Times,serif" font-size="14.00">over_clause</text>
</g>
<!-- expression&#45;&gt;over_clause -->
<g id="edge55" class="edge">
<title>expression&#45;&gt;over_clause</title>
<path fill="none" stroke="black" d="M1875.16,-145.98C1896.83,-135.8 1925.73,-122.22 1949.39,-111.11"/>
<polygon fill="black" stroke="black" points="1950.58,-114.42 1958.14,-107 1947.6,-108.08 1950.58,-114.42"/>
</g>
<!-- DOLLAR_ACTION -->
<g id="node58" class="node">
<title>DOLLAR_ACTION</title>
<ellipse fill="none" stroke="red" cx="2179.19" cy="-90" rx="99.08" ry="18"/>
<text text-anchor="middle" x="2179.19" y="-85.33" font-family="Times,serif" font-size="14.00">DOLLAR_ACTION</text>
</g>
<!-- expression&#45;&gt;DOLLAR_ACTION -->
<g id="edge56" class="edge">
<title>expression&#45;&gt;DOLLAR_ACTION</title>
<path fill="none" stroke="black" d="M1892.38,-149.68C1900.97,-147.75 1909.84,-145.79 1918.19,-144 1980.1,-130.7 2050.47,-116.46 2102.52,-106.1"/>
<polygon fill="black" stroke="black" points="2103.07,-109.56 2112.19,-104.17 2101.7,-102.69 2103.07,-109.56"/>
</g>
<!-- execute_var_string -->
<g id="node43" class="node">
<title>execute_var_string</title>
<g id="a_node43"><a xlink:href="https://github.com/Crary-Systems/tree-sitter-tsql/blob/main/test/corpus/execute_var_string.txt" xlink:title="execute_var_string">
<ellipse fill="lightgreen" stroke="lightgreen" cx="330.19" cy="-18" rx="105.92" ry="18"/>
<text text-anchor="middle" x="330.19" y="-13.32" font-family="Times,serif" font-size="14.00">execute_var_string</text>
</a>
</g>
</g>
<!-- udt_method_arguments&#45;&gt;execute_var_string -->
<g id="edge41" class="edge">
<title>udt_method_arguments&#45;&gt;execute_var_string</title>
<path fill="none" stroke="black" d="M330.19,-71.7C330.19,-64.41 330.19,-55.73 330.19,-47.54"/>
<polygon fill="black" stroke="black" points="333.69,-47.62 330.19,-37.62 326.69,-47.62 333.69,-47.62"/>
</g>
<!-- column_alias -->
<g id="node42" class="node">
<title>column_alias</title>
<g id="a_node42"><a xlink:href="https://github.com/Crary-Systems/tree-sitter-tsql/blob/main/test/corpus/column_alias.txt" xlink:title="column_alias">
<ellipse fill="lightgreen" stroke="lightgreen" cx="91.19" cy="-18" rx="75.41" ry="18"/>
<text text-anchor="middle" x="91.19" y="-13.32" font-family="Times,serif" font-size="14.00">column_alias</text>
</a>
</g>
</g>
<!-- as_column_alias&#45;&gt;column_alias -->
<g id="edge40" class="edge">
<title>as_column_alias&#45;&gt;column_alias</title>
<path fill="none" stroke="black" d="M91.19,-71.7C91.19,-64.41 91.19,-55.73 91.19,-47.54"/>
<polygon fill="black" stroke="black" points="94.69,-47.62 91.19,-37.62 87.69,-47.62 94.69,-47.62"/>
</g>
</g>
</svg>
