<?xml version="1.0" encoding="UTF-8" standalone="no"?>
<!DOCTYPE svg PUBLIC "-//W3C//DTD SVG 1.1//EN"
 "http://www.w3.org/Graphics/SVG/1.1/DTD/svg11.dtd">
<!-- Generated by graphviz version 10.0.1 (0)
 -->
<!-- Title: Roadmap Pages: 1 -->
<svg width="1131pt" height="404pt"
 viewBox="0.00 0.00 1131.04 404.00" xmlns="http://www.w3.org/2000/svg" xmlns:xlink="http://www.w3.org/1999/xlink">
<g id="graph0" class="graph" transform="scale(1 1) rotate(0) translate(4 400)">
<title>Roadmap</title>
<polygon fill="white" stroke="none" points="-4,4 -4,-400 1127.04,-400 1127.04,4 -4,4"/>
<!-- tsql_file -->
<g id="node1" class="node">
<title>tsql_file</title>
<g id="a_node1"><a xlink:href="https://github.com/Crary-Systems/tree-sitter-tsql/blob/main/grammar.js#L46" xlink:title="tsql_file">
<ellipse fill="none" stroke="red" cx="579.14" cy="-378" rx="50.16" ry="18"/>
<text text-anchor="middle" x="579.14" y="-373.32" font-family="Times,serif" font-size="14.00">tsql_file</text>
</a>
</g>
</g>
<!-- batch -->
<g id="node2" class="node">
<title>batch</title>
<g id="a_node2"><a xlink:href="https://github.com/Crary-Systems/tree-sitter-tsql/blob/main/grammar.js#L51" xlink:title="batch">
<ellipse fill="none" stroke="red" cx="646.14" cy="-306" rx="39.11" ry="18"/>
<text text-anchor="middle" x="646.14" y="-301.32" font-family="Times,serif" font-size="14.00">batch</text>
</a>
</g>
</g>
<!-- tsql_file&#45;&gt;batch -->
<g id="edge1" class="edge">
<title>tsql_file&#45;&gt;batch</title>
<path fill="none" stroke="black" d="M594.68,-360.76C603.17,-351.89 613.85,-340.74 623.27,-330.89"/>
<polygon fill="black" stroke="black" points="625.71,-333.4 630.1,-323.76 620.66,-328.56 625.71,-333.4"/>
</g>
<!-- execute_body_batch -->
<g id="node3" class="node">
<title>execute_body_batch</title>
<g id="a_node3"><a xlink:href="https://github.com/Crary-Systems/tree-sitter-tsql/blob/main/test/corpus/batch.txt#L74" xlink:title="execute_body_batch">
<ellipse fill="lightgreen" stroke="lightgreen" cx="404.14" cy="-234" rx="111.71" ry="18"/>
<text text-anchor="middle" x="404.14" y="-229.32" font-family="Times,serif" font-size="14.00">execute_body_batch</text>
</a>
</g>
</g>
<!-- tsql_file&#45;&gt;execute_body_batch -->
<g id="edge2" class="edge">
<title>tsql_file&#45;&gt;execute_body_batch</title>
<path fill="none" stroke="black" d="M559.41,-360.99C528.75,-336.11 469.51,-288.04 433.72,-259"/>
<polygon fill="black" stroke="black" points="436.31,-256.59 426.34,-253.01 431.9,-262.03 436.31,-256.59"/>
</g>
<!-- go_statement -->
<g id="node4" class="node">
<title>go_statement</title>
<g id="a_node4"><a xlink:href="https://github.com/Crary-Systems/tree-sitter-tsql/blob/main/test/corpus/go.txt" xlink:title="go_statement">
<ellipse fill="lightgreen" stroke="lightgreen" cx="613.14" cy="-234" rx="79.09" ry="18"/>
<text text-anchor="middle" x="613.14" y="-229.32" font-family="Times,serif" font-size="14.00">go_statement</text>
</a>
</g>
</g>
<!-- tsql_file&#45;&gt;go_statement -->
<g id="edge3" class="edge">
<title>tsql_file&#45;&gt;go_statement</title>
<path fill="none" stroke="black" d="M582.45,-359.86C586.01,-341.88 591.98,-312.84 598.14,-288 600.15,-279.89 602.54,-271.15 604.81,-263.14"/>
<polygon fill="black" stroke="black" points="608.16,-264.14 607.57,-253.56 601.44,-262.2 608.16,-264.14"/>
</g>
<!-- batch&#45;&gt;execute_body_batch -->
<g id="edge5" class="edge">
<title>batch&#45;&gt;execute_body_batch</title>
<path fill="none" stroke="black" d="M613.5,-295.56C576.36,-284.81 514.78,-267 468,-253.47"/>
<polygon fill="black" stroke="black" points="469.09,-250.14 458.51,-250.73 467.14,-256.87 469.09,-250.14"/>
</g>
<!-- batch&#45;&gt;go_statement -->
<g id="edge4" class="edge">
<title>batch&#45;&gt;go_statement</title>
<path fill="none" stroke="black" d="M638.15,-288.05C634.56,-280.43 630.22,-271.23 626.18,-262.65"/>
<polygon fill="black" stroke="black" points="629.36,-261.2 621.93,-253.64 623.03,-264.18 629.36,-261.2"/>
</g>
<!-- sql_clauses -->
<g id="node5" class="node">
<title>sql_clauses</title>
<g id="a_node5"><a xlink:href="https://github.com/Crary-Systems/tree-sitter-tsql/blob/main/grammar.js#L118" xlink:title="sql_clauses">
<ellipse fill="none" stroke="red" cx="778.14" cy="-234" rx="67.52" ry="18"/>
<text text-anchor="middle" x="778.14" y="-229.32" font-family="Times,serif" font-size="14.00">sql_clauses</text>
</a>
</g>
</g>
<!-- batch&#45;&gt;sql_clauses -->
<g id="edge6" class="edge">
<title>batch&#45;&gt;sql_clauses</title>
<path fill="none" stroke="black" d="M670.97,-291.83C690.05,-281.71 716.78,-267.54 738.77,-255.88"/>
<polygon fill="black" stroke="black" points="740.28,-259.04 747.48,-251.26 737,-252.85 740.28,-259.04"/>
</g>
<!-- batch_level_statement -->
<g id="node6" class="node">
<title>batch_level_statement</title>
<g id="a_node6"><a xlink:href="https://github.com/Crary-Systems/tree-sitter-tsql/blob/main/grammar.js#L116" xlink:title="batch_level_statement">
<ellipse fill="none" stroke="red" cx="987.14" cy="-234" rx="123.29" ry="18"/>
<text text-anchor="middle" x="987.14" y="-229.32" font-family="Times,serif" font-size="14.00">batch_level_statement</text>
</a>
</g>
</g>
<!-- batch&#45;&gt;batch_level_statement -->
<g id="edge7" class="edge">
<title>batch&#45;&gt;batch_level_statement</title>
<path fill="none" stroke="black" d="M681.35,-297.77C734.09,-286.95 835.02,-266.23 906.48,-251.56"/>
<polygon fill="black" stroke="black" points="907.11,-255 916.2,-249.56 905.7,-248.14 907.11,-255"/>
</g>
<!-- func_proc_name_server_database_schema -->
<g id="node7" class="node">
<title>func_proc_name_server_database_schema</title>
<g id="a_node7"><a xlink:href="https://github.com/Crary-Systems/tree-sitter-tsql/blob/main/test/corpus/func_proc_name_server_database_schema.txt" xlink:title="func_proc_name_server_database_schema">
<ellipse fill="lightgreen" stroke="lightgreen" cx="221.14" cy="-162" rx="221.14" ry="18"/>
<text text-anchor="middle" x="221.14" y="-157.32" font-family="Times,serif" font-size="14.00">func_proc_name_server_database_schema</text>
</a>
</g>
</g>
<!-- execute_body_batch&#45;&gt;func_proc_name_server_database_schema -->
<g id="edge8" class="edge">
<title>execute_body_batch&#45;&gt;func_proc_name_server_database_schema</title>
<path fill="none" stroke="black" d="M362.16,-216.94C336.73,-207.21 303.99,-194.69 276.46,-184.16"/>
<polygon fill="black" stroke="black" points="277.81,-180.93 267.22,-180.63 275.31,-187.47 277.81,-180.93"/>
</g>
<!-- execute_statement_arg -->
<g id="node8" class="node">
<title>execute_statement_arg</title>
<g id="a_node8"><a xlink:href="https://github.com/Crary-Systems/tree-sitter-tsql/blob/main/test/corpus/execute_statement_arg.txt" xlink:title="execute_statement_arg">
<ellipse fill="lightgreen" stroke="lightgreen" cx="595.14" cy="-162" rx="127.49" ry="18"/>
<text text-anchor="middle" x="595.14" y="-157.32" font-family="Times,serif" font-size="14.00">execute_statement_arg</text>
</a>
</g>
</g>
<!-- execute_body_batch&#45;&gt;execute_statement_arg -->
<g id="edge9" class="edge">
<title>execute_body_batch&#45;&gt;execute_statement_arg</title>
<path fill="none" stroke="black" d="M447.48,-217.12C474.93,-207.06 510.67,-193.96 540.11,-183.17"/>
<polygon fill="black" stroke="black" points="541.04,-186.56 549.23,-179.83 538.63,-179.98 541.04,-186.56"/>
</g>
<!-- func_proc_name_database_schema -->
<g id="node11" class="node">
<title>func_proc_name_database_schema</title>
<g id="a_node11"><a xlink:href="https://github.com/Crary-Systems/tree-sitter-tsql/blob/main/test/corpus/func_proc_name_server_database_schema.txt" xlink:title="func_proc_name_database_schema">
<ellipse fill="lightgreen" stroke="lightgreen" cx="214.14" cy="-90" rx="184.31" ry="18"/>
<text text-anchor="middle" x="214.14" y="-85.33" font-family="Times,serif" font-size="14.00">func_proc_name_database_schema</text>
</a>
</g>
</g>
<!-- func_proc_name_server_database_schema&#45;&gt;func_proc_name_database_schema -->
<g id="edge12" class="edge">
<title>func_proc_name_server_database_schema&#45;&gt;func_proc_name_database_schema</title>
<path fill="none" stroke="black" d="M219.41,-143.7C218.68,-136.41 217.81,-127.73 217,-119.54"/>
<polygon fill="black" stroke="black" points="220.48,-119.21 216,-109.61 213.52,-119.91 220.48,-119.21"/>
</g>
<!-- execute_statement_arg_named -->
<g id="node9" class="node">
<title>execute_statement_arg_named</title>
<g id="a_node9"><a xlink:href="https://github.com/Crary-Systems/tree-sitter-tsql/blob/main/test/corpus/execute_statement_arg.txt#L2" xlink:title="execute_statement_arg_named">
<ellipse fill="lightgreen" stroke="lightgreen" cx="957.14" cy="-90" rx="165.9" ry="18"/>
<text text-anchor="middle" x="957.14" y="-85.33" font-family="Times,serif" font-size="14.00">execute_statement_arg_named</text>
</a>
</g>
</g>
<!-- execute_statement_arg&#45;&gt;execute_statement_arg_named -->
<g id="edge10" class="edge">
<title>execute_statement_arg&#45;&gt;execute_statement_arg_named</title>
<path fill="none" stroke="black" d="M668.4,-146.83C725.77,-135.74 805.86,-120.25 867.14,-108.4"/>
<polygon fill="black" stroke="black" points="867.71,-111.86 876.86,-106.52 866.38,-104.99 867.71,-111.86"/>
</g>
<!-- execute_statement_arg_unnamed -->
<g id="node10" class="node">
<title>execute_statement_arg_unnamed</title>
<g id="a_node10"><a xlink:href="https://github.com/Crary-Systems/tree-sitter-tsql/blob/main/test/corpus/execute_statement_arg.txt#L42" xlink:title="execute_statement_arg_unnamed">
<ellipse fill="lightgreen" stroke="lightgreen" cx="595.14" cy="-90" rx="178.53" ry="18"/>
<text text-anchor="middle" x="595.14" y="-85.33" font-family="Times,serif" font-size="14.00">execute_statement_arg_unnamed</text>
</a>
</g>
</g>
<!-- execute_statement_arg&#45;&gt;execute_statement_arg_unnamed -->
<g id="edge11" class="edge">
<title>execute_statement_arg&#45;&gt;execute_statement_arg_unnamed</title>
<path fill="none" stroke="black" d="M595.14,-143.7C595.14,-136.41 595.14,-127.73 595.14,-119.54"/>
<polygon fill="black" stroke="black" points="598.64,-119.62 595.14,-109.62 591.64,-119.62 598.64,-119.62"/>
</g>
<!-- func_proc_name_schema -->
<g id="node12" class="node">
<title>func_proc_name_schema</title>
<g id="a_node12"><a xlink:href="https://github.com/Crary-Systems/tree-sitter-tsql/blob/main/test/corpus/func_proc_name_server_database_schema.txt" xlink:title="func_proc_name_schema">
<ellipse fill="lightgreen" stroke="lightgreen" cx="214.14" cy="-18" rx="134.33" ry="18"/>
<text text-anchor="middle" x="214.14" y="-13.32" font-family="Times,serif" font-size="14.00">func_proc_name_schema</text>
</a>
</g>
</g>
<!-- func_proc_name_database_schema&#45;&gt;func_proc_name_schema -->
<g id="edge13" class="edge">
<title>func_proc_name_database_schema&#45;&gt;func_proc_name_schema</title>
<path fill="none" stroke="black" d="M214.14,-71.7C214.14,-64.41 214.14,-55.73 214.14,-47.54"/>
<polygon fill="black" stroke="black" points="217.64,-47.62 214.14,-37.62 210.64,-47.62 217.64,-47.62"/>
</g>
</g>
</svg>
