<?xml version="1.0" encoding="UTF-8" standalone="no"?>
<!DOCTYPE svg PUBLIC "-//W3C//DTD SVG 1.1//EN"
 "http://www.w3.org/Graphics/SVG/1.1/DTD/svg11.dtd">
<!-- Generated by graphviz version 10.0.1 (0)
 -->
<!-- Title: Roadmap Pages: 1 -->
<svg width="2365pt" height="476pt"
 viewBox="0.00 0.00 2365.13 476.00" xmlns="http://www.w3.org/2000/svg" xmlns:xlink="http://www.w3.org/1999/xlink">
<g id="graph0" class="graph" transform="scale(1 1) rotate(0) translate(4 472)">
<title>Roadmap</title>
<polygon fill="white" stroke="none" points="-4,4 -4,-472 2361.13,-472 2361.13,4 -4,4"/>
<!-- tsql_file -->
<g id="node1" class="node">
<title>tsql_file</title>
<g id="a_node1"><a xlink:href="https://github.com/Crary-Systems/tree-sitter-tsql/blob/main/grammar.js#L46" xlink:title="tsql_file">
<ellipse fill="none" stroke="red" cx="1077.9" cy="-450" rx="50.16" ry="18"/>
<text text-anchor="middle" x="1077.9" y="-445.32" font-family="Times,serif" font-size="14.00">tsql_file</text>
</a>
</g>
</g>
<!-- batch -->
<g id="node2" class="node">
<title>batch</title>
<g id="a_node2"><a xlink:href="https://github.com/Crary-Systems/tree-sitter-tsql/blob/main/grammar.js#L51" xlink:title="batch">
<ellipse fill="none" stroke="red" cx="1144.9" cy="-378" rx="39.11" ry="18"/>
<text text-anchor="middle" x="1144.9" y="-373.32" font-family="Times,serif" font-size="14.00">batch</text>
</a>
</g>
</g>
<!-- tsql_file&#45;&gt;batch -->
<g id="edge1" class="edge">
<title>tsql_file&#45;&gt;batch</title>
<path fill="none" stroke="black" d="M1093.44,-432.76C1101.93,-423.89 1112.61,-412.74 1122.03,-402.89"/>
<polygon fill="black" stroke="black" points="1124.47,-405.4 1128.86,-395.76 1119.42,-400.56 1124.47,-405.4"/>
</g>
<!-- execute_body_batch -->
<g id="node3" class="node">
<title>execute_body_batch</title>
<g id="a_node3"><a xlink:href="https://github.com/Crary-Systems/tree-sitter-tsql/blob/main/test/corpus/batch.txt#L74" xlink:title="execute_body_batch">
<ellipse fill="lightgreen" stroke="lightgreen" cx="902.9" cy="-306" rx="111.71" ry="18"/>
<text text-anchor="middle" x="902.9" y="-301.32" font-family="Times,serif" font-size="14.00">execute_body_batch</text>
</a>
</g>
</g>
<!-- tsql_file&#45;&gt;execute_body_batch -->
<g id="edge2" class="edge">
<title>tsql_file&#45;&gt;execute_body_batch</title>
<path fill="none" stroke="black" d="M1058.17,-432.99C1027.51,-408.11 968.26,-360.04 932.48,-331"/>
<polygon fill="black" stroke="black" points="935.07,-328.59 925.09,-325.01 930.65,-334.03 935.07,-328.59"/>
</g>
<!-- go_statement -->
<g id="node4" class="node">
<title>go_statement</title>
<g id="a_node4"><a xlink:href="https://github.com/Crary-Systems/tree-sitter-tsql/blob/main/test/corpus/go.txt" xlink:title="go_statement">
<ellipse fill="lightgreen" stroke="lightgreen" cx="1111.9" cy="-306" rx="79.09" ry="18"/>
<text text-anchor="middle" x="1111.9" y="-301.32" font-family="Times,serif" font-size="14.00">go_statement</text>
</a>
</g>
</g>
<!-- tsql_file&#45;&gt;go_statement -->
<g id="edge3" class="edge">
<title>tsql_file&#45;&gt;go_statement</title>
<path fill="none" stroke="black" d="M1081.21,-431.86C1084.77,-413.88 1090.74,-384.84 1096.9,-360 1098.91,-351.89 1101.29,-343.15 1103.56,-335.14"/>
<polygon fill="black" stroke="black" points="1106.92,-336.14 1106.33,-325.56 1100.19,-334.2 1106.92,-336.14"/>
</g>
<!-- batch&#45;&gt;execute_body_batch -->
<g id="edge5" class="edge">
<title>batch&#45;&gt;execute_body_batch</title>
<path fill="none" stroke="black" d="M1112.26,-367.56C1075.12,-356.81 1013.54,-339 966.76,-325.47"/>
<polygon fill="black" stroke="black" points="967.85,-322.14 957.27,-322.73 965.9,-328.87 967.85,-322.14"/>
</g>
<!-- batch&#45;&gt;go_statement -->
<g id="edge4" class="edge">
<title>batch&#45;&gt;go_statement</title>
<path fill="none" stroke="black" d="M1136.91,-360.05C1133.32,-352.43 1128.98,-343.23 1124.94,-334.65"/>
<polygon fill="black" stroke="black" points="1128.12,-333.2 1120.69,-325.64 1121.79,-336.18 1128.12,-333.2"/>
</g>
<!-- sql_clauses -->
<g id="node5" class="node">
<title>sql_clauses</title>
<g id="a_node5"><a xlink:href="https://github.com/Crary-Systems/tree-sitter-tsql/blob/4dda5f0b2a1d0c921fa68dff7fd5ffdb39467df3/grammar.js#L118-L122" xlink:title="sql_clauses">
<ellipse fill="none" stroke="red" cx="1276.9" cy="-306" rx="67.52" ry="18"/>
<text text-anchor="middle" x="1276.9" y="-301.32" font-family="Times,serif" font-size="14.00">sql_clauses</text>
</a>
</g>
</g>
<!-- batch&#45;&gt;sql_clauses -->
<g id="edge6" class="edge">
<title>batch&#45;&gt;sql_clauses</title>
<path fill="none" stroke="black" d="M1169.73,-363.83C1188.81,-353.71 1215.54,-339.54 1237.53,-327.88"/>
<polygon fill="black" stroke="black" points="1239.04,-331.04 1246.24,-323.26 1235.76,-324.85 1239.04,-331.04"/>
</g>
<!-- batch_level_statement -->
<g id="node6" class="node">
<title>batch_level_statement</title>
<g id="a_node6"><a xlink:href="https://github.com/Crary-Systems/tree-sitter-tsql/blob/main/grammar.js#L116" xlink:title="batch_level_statement">
<ellipse fill="none" stroke="red" cx="1788.9" cy="-306" rx="123.29" ry="18"/>
<text text-anchor="middle" x="1788.9" y="-301.32" font-family="Times,serif" font-size="14.00">batch_level_statement</text>
</a>
</g>
</g>
<!-- batch&#45;&gt;batch_level_statement -->
<g id="edge7" class="edge">
<title>batch&#45;&gt;batch_level_statement</title>
<path fill="none" stroke="black" d="M1182.78,-372.88C1278.76,-362.45 1534.27,-334.68 1681.08,-318.72"/>
<polygon fill="black" stroke="black" points="1681.27,-322.22 1690.83,-317.66 1680.51,-315.26 1681.27,-322.22"/>
</g>
<!-- func_proc_name_server_database_schema -->
<g id="node7" class="node">
<title>func_proc_name_server_database_schema</title>
<g id="a_node7"><a xlink:href="https://github.com/Crary-Systems/tree-sitter-tsql/blob/main/test/corpus/func_proc_name_server_database_schema.txt" xlink:title="func_proc_name_server_database_schema">
<ellipse fill="lightgreen" stroke="lightgreen" cx="904.9" cy="-234" rx="221.14" ry="18"/>
<text text-anchor="middle" x="904.9" y="-229.32" font-family="Times,serif" font-size="14.00">func_proc_name_server_database_schema</text>
</a>
</g>
</g>
<!-- execute_body_batch&#45;&gt;func_proc_name_server_database_schema -->
<g id="edge8" class="edge">
<title>execute_body_batch&#45;&gt;func_proc_name_server_database_schema</title>
<path fill="none" stroke="black" d="M903.39,-287.7C903.6,-280.41 903.85,-271.73 904.08,-263.54"/>
<polygon fill="black" stroke="black" points="907.58,-263.71 904.37,-253.62 900.58,-263.51 907.58,-263.71"/>
</g>
<!-- execute_statement_arg -->
<g id="node8" class="node">
<title>execute_statement_arg</title>
<g id="a_node8"><a xlink:href="https://github.com/Crary-Systems/tree-sitter-tsql/blob/main/test/corpus/execute_statement_arg.txt" xlink:title="execute_statement_arg">
<ellipse fill="lightgreen" stroke="lightgreen" cx="527.9" cy="-234" rx="127.49" ry="18"/>
<text text-anchor="middle" x="527.9" y="-229.32" font-family="Times,serif" font-size="14.00">execute_statement_arg</text>
</a>
</g>
</g>
<!-- execute_body_batch&#45;&gt;execute_statement_arg -->
<g id="edge9" class="edge">
<title>execute_body_batch&#45;&gt;execute_statement_arg</title>
<path fill="none" stroke="black" d="M831.92,-291.75C770,-280.19 679.98,-263.39 613.97,-251.07"/>
<polygon fill="black" stroke="black" points="614.72,-247.65 604.25,-249.25 613.44,-254.53 614.72,-247.65"/>
</g>
<!-- dml_clause -->
<g id="node13" class="node">
<title>dml_clause</title>
<g id="a_node13"><a xlink:href="https://github.com/Crary-Systems/tree-sitter-tsql/blob/4dda5f0b2a1d0c921fa68dff7fd5ffdb39467df3/grammar.js#L192-L195" xlink:title="dml_clause">
<ellipse fill="none" stroke="red" cx="1274.9" cy="-234" rx="66.47" ry="18"/>
<text text-anchor="middle" x="1274.9" y="-229.32" font-family="Times,serif" font-size="14.00">dml_clause</text>
</a>
</g>
</g>
<!-- sql_clauses&#45;&gt;dml_clause -->
<g id="edge14" class="edge">
<title>sql_clauses&#45;&gt;dml_clause</title>
<path fill="none" stroke="black" d="M1276.41,-287.7C1276.2,-280.41 1275.95,-271.73 1275.72,-263.54"/>
<polygon fill="black" stroke="black" points="1279.22,-263.51 1275.43,-253.62 1272.22,-263.71 1279.22,-263.51"/>
</g>
<!-- create_or_alter_function -->
<g id="node20" class="node">
<title>create_or_alter_function</title>
<ellipse fill="none" stroke="red" cx="2224.9" cy="-234" rx="132.23" ry="18"/>
<text text-anchor="middle" x="2224.9" y="-229.32" font-family="Times,serif" font-size="14.00">create_or_alter_function</text>
</g>
<!-- batch_level_statement&#45;&gt;create_or_alter_function -->
<g id="edge21" class="edge">
<title>batch_level_statement&#45;&gt;create_or_alter_function</title>
<path fill="none" stroke="black" d="M1869.63,-292.04C1943.42,-280.19 2052.58,-262.67 2130.41,-250.17"/>
<polygon fill="black" stroke="black" points="2130.84,-253.65 2140.16,-248.61 2129.73,-246.73 2130.84,-253.65"/>
</g>
<!-- create_or_alter_procedure -->
<g id="node21" class="node">
<title>create_or_alter_procedure</title>
<ellipse fill="none" stroke="red" cx="1501.9" cy="-234" rx="142.23" ry="18"/>
<text text-anchor="middle" x="1501.9" y="-229.32" font-family="Times,serif" font-size="14.00">create_or_alter_procedure</text>
</g>
<!-- batch_level_statement&#45;&gt;create_or_alter_procedure -->
<g id="edge22" class="edge">
<title>batch_level_statement&#45;&gt;create_or_alter_procedure</title>
<path fill="none" stroke="black" d="M1727.33,-289.98C1683.11,-279.2 1623.28,-264.61 1576.37,-253.16"/>
<polygon fill="black" stroke="black" points="1577.37,-249.8 1566.82,-250.83 1575.71,-256.6 1577.37,-249.8"/>
</g>
<!-- create_or_alter_trigger -->
<g id="node22" class="node">
<title>create_or_alter_trigger</title>
<ellipse fill="none" stroke="red" cx="1788.9" cy="-234" rx="126.44" ry="18"/>
<text text-anchor="middle" x="1788.9" y="-229.32" font-family="Times,serif" font-size="14.00">create_or_alter_trigger</text>
</g>
<!-- batch_level_statement&#45;&gt;create_or_alter_trigger -->
<g id="edge23" class="edge">
<title>batch_level_statement&#45;&gt;create_or_alter_trigger</title>
<path fill="none" stroke="black" d="M1788.9,-287.7C1788.9,-280.41 1788.9,-271.73 1788.9,-263.54"/>
<polygon fill="black" stroke="black" points="1792.4,-263.62 1788.9,-253.62 1785.4,-263.62 1792.4,-263.62"/>
</g>
<!-- create_view -->
<g id="node23" class="node">
<title>create_view</title>
<ellipse fill="none" stroke="red" cx="2003.9" cy="-234" rx="70.67" ry="18"/>
<text text-anchor="middle" x="2003.9" y="-229.32" font-family="Times,serif" font-size="14.00">create_view</text>
</g>
<!-- batch_level_statement&#45;&gt;create_view -->
<g id="edge24" class="edge">
<title>batch_level_statement&#45;&gt;create_view</title>
<path fill="none" stroke="black" d="M1837.96,-289.03C1871.62,-278.07 1916.26,-263.53 1950.77,-252.3"/>
<polygon fill="black" stroke="black" points="1951.72,-255.67 1960.15,-249.24 1949.56,-249.01 1951.72,-255.67"/>
</g>
<!-- func_proc_name_database_schema -->
<g id="node11" class="node">
<title>func_proc_name_database_schema</title>
<g id="a_node11"><a xlink:href="https://github.com/Crary-Systems/tree-sitter-tsql/blob/main/test/corpus/func_proc_name_server_database_schema.txt" xlink:title="func_proc_name_database_schema">
<ellipse fill="lightgreen" stroke="lightgreen" cx="908.9" cy="-162" rx="184.31" ry="18"/>
<text text-anchor="middle" x="908.9" y="-157.32" font-family="Times,serif" font-size="14.00">func_proc_name_database_schema</text>
</a>
</g>
</g>
<!-- func_proc_name_server_database_schema&#45;&gt;func_proc_name_database_schema -->
<g id="edge12" class="edge">
<title>func_proc_name_server_database_schema&#45;&gt;func_proc_name_database_schema</title>
<path fill="none" stroke="black" d="M905.89,-215.7C906.31,-208.41 906.8,-199.73 907.27,-191.54"/>
<polygon fill="black" stroke="black" points="910.76,-191.8 907.84,-181.62 903.77,-191.4 910.76,-191.8"/>
</g>
<!-- execute_statement_arg_named -->
<g id="node9" class="node">
<title>execute_statement_arg_named</title>
<g id="a_node9"><a xlink:href="https://github.com/Crary-Systems/tree-sitter-tsql/blob/main/test/corpus/execute_statement_arg.txt#L2" xlink:title="execute_statement_arg_named">
<ellipse fill="lightgreen" stroke="lightgreen" cx="165.9" cy="-162" rx="165.9" ry="18"/>
<text text-anchor="middle" x="165.9" y="-157.32" font-family="Times,serif" font-size="14.00">execute_statement_arg_named</text>
</a>
</g>
</g>
<!-- execute_statement_arg&#45;&gt;execute_statement_arg_named -->
<g id="edge10" class="edge">
<title>execute_statement_arg&#45;&gt;execute_statement_arg_named</title>
<path fill="none" stroke="black" d="M454.64,-218.83C397.27,-207.74 317.18,-192.25 255.91,-180.4"/>
<polygon fill="black" stroke="black" points="256.66,-176.99 246.18,-178.52 255.33,-183.86 256.66,-176.99"/>
</g>
<!-- execute_statement_arg_unnamed -->
<g id="node10" class="node">
<title>execute_statement_arg_unnamed</title>
<g id="a_node10"><a xlink:href="https://github.com/Crary-Systems/tree-sitter-tsql/blob/main/test/corpus/execute_statement_arg.txt#L42" xlink:title="execute_statement_arg_unnamed">
<ellipse fill="lightgreen" stroke="lightgreen" cx="527.9" cy="-162" rx="178.53" ry="18"/>
<text text-anchor="middle" x="527.9" y="-157.32" font-family="Times,serif" font-size="14.00">execute_statement_arg_unnamed</text>
</a>
</g>
</g>
<!-- execute_statement_arg&#45;&gt;execute_statement_arg_unnamed -->
<g id="edge11" class="edge">
<title>execute_statement_arg&#45;&gt;execute_statement_arg_unnamed</title>
<path fill="none" stroke="black" d="M527.9,-215.7C527.9,-208.41 527.9,-199.73 527.9,-191.54"/>
<polygon fill="black" stroke="black" points="531.4,-191.62 527.9,-181.62 524.4,-191.62 531.4,-191.62"/>
</g>
<!-- func_proc_name_schema -->
<g id="node12" class="node">
<title>func_proc_name_schema</title>
<g id="a_node12"><a xlink:href="https://github.com/Crary-Systems/tree-sitter-tsql/blob/main/test/corpus/func_proc_name_server_database_schema.txt" xlink:title="func_proc_name_schema">
<ellipse fill="lightgreen" stroke="lightgreen" cx="908.9" cy="-90" rx="134.33" ry="18"/>
<text text-anchor="middle" x="908.9" y="-85.33" font-family="Times,serif" font-size="14.00">func_proc_name_schema</text>
</a>
</g>
</g>
<!-- func_proc_name_database_schema&#45;&gt;func_proc_name_schema -->
<g id="edge13" class="edge">
<title>func_proc_name_database_schema&#45;&gt;func_proc_name_schema</title>
<path fill="none" stroke="black" d="M908.9,-143.7C908.9,-136.41 908.9,-127.73 908.9,-119.54"/>
<polygon fill="black" stroke="black" points="912.4,-119.62 908.9,-109.62 905.4,-119.62 912.4,-119.62"/>
</g>
<!-- select_statement_standalone -->
<g id="node14" class="node">
<title>select_statement_standalone</title>
<g id="a_node14"><a xlink:href="https://github.com/Crary-Systems/tree-sitter-tsql/blob/4dda5f0b2a1d0c921fa68dff7fd5ffdb39467df3/grammar.js#L197-L200" xlink:title="select_statement_standalone">
<ellipse fill="none" stroke="red" cx="1274.9" cy="-162" rx="155.9" ry="18"/>
<text text-anchor="middle" x="1274.9" y="-157.32" font-family="Times,serif" font-size="14.00">select_statement_standalone</text>
</a>
</g>
</g>
<!-- dml_clause&#45;&gt;select_statement_standalone -->
<g id="edge15" class="edge">
<title>dml_clause&#45;&gt;select_statement_standalone</title>
<path fill="none" stroke="black" d="M1274.9,-215.7C1274.9,-208.41 1274.9,-199.73 1274.9,-191.54"/>
<polygon fill="black" stroke="black" points="1278.4,-191.62 1274.9,-181.62 1271.4,-191.62 1278.4,-191.62"/>
</g>
<!-- select_statement -->
<g id="node15" class="node">
<title>select_statement</title>
<ellipse fill="none" stroke="red" cx="1274.9" cy="-90" rx="96.45" ry="18"/>
<text text-anchor="middle" x="1274.9" y="-85.33" font-family="Times,serif" font-size="14.00">select_statement</text>
</g>
<!-- select_statement_standalone&#45;&gt;select_statement -->
<g id="edge16" class="edge">
<title>select_statement_standalone&#45;&gt;select_statement</title>
<path fill="none" stroke="black" d="M1274.9,-143.7C1274.9,-136.41 1274.9,-127.73 1274.9,-119.54"/>
<polygon fill="black" stroke="black" points="1278.4,-119.62 1274.9,-109.62 1271.4,-119.62 1278.4,-119.62"/>
</g>
<!-- query_expression -->
<g id="node16" class="node">
<title>query_expression</title>
<g id="a_node16"><a xlink:href="https://github.com/Crary-Systems/tree-sitter-tsql/blob/main/grammar.js#L208-L211" xlink:title="query_expression">
<ellipse fill="none" stroke="red" cx="928.9" cy="-18" rx="99.08" ry="18"/>
<text text-anchor="middle" x="928.9" y="-13.32" font-family="Times,serif" font-size="14.00">query_expression</text>
</a>
</g>
</g>
<!-- select_statement&#45;&gt;query_expression -->
<g id="edge17" class="edge">
<title>select_statement&#45;&gt;query_expression</title>
<path fill="none" stroke="black" d="M1211.44,-76.16C1153.13,-64.36 1066.61,-46.86 1004.69,-34.33"/>
<polygon fill="black" stroke="black" points="1005.4,-30.91 994.91,-32.35 1004.02,-37.77 1005.4,-30.91"/>
</g>
<!-- select_order_by_clause -->
<g id="node17" class="node">
<title>select_order_by_clause</title>
<ellipse fill="none" stroke="red" cx="1171.9" cy="-18" rx="125.92" ry="18"/>
<text text-anchor="middle" x="1171.9" y="-13.32" font-family="Times,serif" font-size="14.00">select_order_by_clause</text>
</g>
<!-- select_statement&#45;&gt;select_order_by_clause -->
<g id="edge18" class="edge">
<title>select_statement&#45;&gt;select_order_by_clause</title>
<path fill="none" stroke="black" d="M1250.23,-72.23C1237.05,-63.27 1220.61,-52.11 1206.21,-42.31"/>
<polygon fill="black" stroke="black" points="1208.58,-39.69 1198.34,-36.97 1204.64,-45.48 1208.58,-39.69"/>
</g>
<!-- for_clause -->
<g id="node18" class="node">
<title>for_clause</title>
<ellipse fill="none" stroke="red" cx="1377.9" cy="-18" rx="61.73" ry="18"/>
<text text-anchor="middle" x="1377.9" y="-13.32" font-family="Times,serif" font-size="14.00">for_clause</text>
</g>
<!-- select_statement&#45;&gt;for_clause -->
<g id="edge19" class="edge">
<title>select_statement&#45;&gt;for_clause</title>
<path fill="none" stroke="black" d="M1299.57,-72.23C1313.24,-62.94 1330.41,-51.28 1345.19,-41.23"/>
<polygon fill="black" stroke="black" points="1346.94,-44.28 1353.24,-35.76 1343,-38.49 1346.94,-44.28"/>
</g>
<!-- option_clause -->
<g id="node19" class="node">
<title>option_clause</title>
<ellipse fill="none" stroke="red" cx="1536.9" cy="-18" rx="79.09" ry="18"/>
<text text-anchor="middle" x="1536.9" y="-13.32" font-family="Times,serif" font-size="14.00">option_clause</text>
</g>
<!-- select_statement&#45;&gt;option_clause -->
<g id="edge20" class="edge">
<title>select_statement&#45;&gt;option_clause</title>
<path fill="none" stroke="black" d="M1328.55,-74.67C1371.34,-63.23 1431.27,-47.22 1475.88,-35.3"/>
<polygon fill="black" stroke="black" points="1476.65,-38.72 1485.41,-32.76 1474.84,-31.96 1476.65,-38.72"/>
</g>
</g>
</svg>
